FA-18C_Hornet_Up_Front_Controller.sfdir
StartChar: slash
Encoding: 47 47 9
Width: 1024
Flags: W
LayerCount: 2
Fore
SplineSet
584 584 m 128,-1,1
 572 596 572 596 572 613 c 128,-1,2
 572 630 572 630 584 642 c 128,-1,3
 596 654 596 654 613 654 c 128,-1,4
 630 654 630 654 642 642 c 128,-1,5
 654 630 654 630 654 613 c 128,-1,6
 654 596 654 596 642 584 c 128,-1,7
 630 572 630 572 613 572 c 128,-1,0
 596 572 596 572 584 584 c 128,-1,1
677 673 m 128,-1,9
 665 685 665 685 665 702 c 128,-1,10
 665 719 665 719 677 731 c 128,-1,11
 689 743 689 743 706 743 c 128,-1,12
 723 743 723 743 735 731 c 128,-1,13
 747 719 747 719 747 702 c 128,-1,14
 747 685 747 685 735 673 c 128,-1,15
 723 661 723 661 706 661 c 128,-1,8
 689 661 689 661 677 673 c 128,-1,9
761 758 m 128,-1,17
 749 770 749 770 749 787 c 128,-1,18
 749 804 749 804 761 816 c 128,-1,19
 773 828 773 828 790 828 c 128,-1,20
 807 828 807 828 819 816 c 128,-1,21
 831 804 831 804 831 787 c 128,-1,22
 831 770 831 770 819 758 c 128,-1,23
 807 746 807 746 790 746 c 128,-1,16
 773 746 773 746 761 758 c 128,-1,17
203 202 m 128,-1,25
 191 214 191 214 191 231 c 128,-1,26
 191 248 191 248 203 260 c 128,-1,27
 215 272 215 272 232 272 c 128,-1,28
 249 272 249 272 261 260 c 128,-1,29
 273 248 273 248 273 231 c 128,-1,30
 273 214 273 214 261 202 c 128,-1,31
 249 190 249 190 232 190 c 128,-1,24
 215 190 215 190 203 202 c 128,-1,25
288 289 m 128,-1,33
 276 301 276 301 276 318 c 128,-1,34
 276 335 276 335 288 347 c 128,-1,35
 300 359 300 359 316.5 359 c 128,-1,36
 333 359 333 359 345 347 c 128,-1,37
 357 335 357 335 357 318 c 128,-1,38
 357 301 357 301 345 289 c 128,-1,39
 333 277 333 277 316.5 277 c 128,-1,32
 300 277 300 277 288 289 c 128,-1,33
377 376 m 128,-1,41
 365 388 365 388 365 405 c 128,-1,42
 365 422 365 422 377 434 c 128,-1,43
 389 446 389 446 406 446 c 128,-1,44
 423 446 423 446 435 434 c 128,-1,45
 447 422 447 422 447 405 c 128,-1,46
 447 388 447 388 435 376 c 128,-1,47
 423 364 423 364 406 364 c 128,-1,40
 389 364 389 364 377 376 c 128,-1,41
22 48 m 1,48,-1
 22 51 l 1,49,-1
 26 51 l 1,50,-1
 26 48 l 1,51,-1
 22 48 l 1,48,-1
EndSplineSet
EndChar
StartChar: less
Encoding: 60 60 21
Width: 640
Flags: W
LayerCount: 2
Fore
SplineSet
280 119 m 128,-1,1
 280 136 280 136 292 148 c 128,-1,2
 304 160 304 160 321 160 c 128,-1,3
 338 160 338 160 350 148 c 128,-1,4
 362 136 362 136 362 119 c 128,-1,5
 362 102 362 102 350 90 c 128,-1,6
 338 78 338 78 321 78 c 128,-1,7
 304 78 304 78 292 90 c 128,-1,0
 280 102 280 102 280 119 c 128,-1,1
162 119 m 128,-1,9
 162 136 162 136 174 148 c 128,-1,10
 186 160 186 160 203 160 c 128,-1,11
 220 160 220 160 232 148 c 128,-1,12
 244 136 244 136 244 119 c 128,-1,13
 244 102 244 102 232 90 c 128,-1,14
 220 78 220 78 203 78 c 128,-1,15
 186 78 186 78 174 90 c 128,-1,8
 162 102 162 102 162 119 c 128,-1,9
608 973 m 1,16,-1
 608 976 l 1,17,-1
 611 976 l 1,18,-1
 611 973 l 1,19,-1
 608 973 l 1,16,-1
29 973 m 1,20,-1
 29 976 l 1,21,-1
 32 976 l 1,22,-1
 32 973 l 1,23,-1
 29 973 l 1,20,-1
608 48 m 1,24,-1
 608 51 l 1,25,-1
 611 51 l 1,26,-1
 611 48 l 1,27,-1
 608 48 l 1,24,-1
29 48 m 1,28,-1
 29 51 l 1,29,-1
 32 51 l 1,30,-1
 32 48 l 1,31,-1
 29 48 l 1,28,-1
EndSplineSet
EndChar
StartChar: L
Encoding: 76 76 36
Width: 1024
Flags: W
LayerCount: 2
Fore
SplineSet
78 582 m 128,-1,1
 78 599 78 599 90 611 c 128,-1,2
 102 623 102 623 119 623 c 128,-1,3
 136 623 136 623 148 611 c 128,-1,4
 160 599 160 599 160 582 c 128,-1,5
 160 565 160 565 148 553 c 128,-1,6
 136 541 136 541 119 541 c 128,-1,7
 102 541 102 541 90 553 c 128,-1,0
 78 565 78 565 78 582 c 128,-1,1
78 700 m 128,-1,9
 78 717 78 717 90 729 c 128,-1,10
 102 741 102 741 119 741 c 128,-1,11
 136 741 136 741 148 729 c 128,-1,12
 160 717 160 717 160 700 c 128,-1,13
 160 683 160 683 148 671 c 128,-1,14
 136 659 136 659 119 659 c 128,-1,15
 102 659 102 659 90 671 c 128,-1,8
 78 683 78 683 78 700 c 128,-1,9
78 818 m 128,-1,17
 78 835 78 835 90 847 c 128,-1,18
 102 859 102 859 119 859 c 128,-1,19
 136 859 136 859 148 847 c 128,-1,20
 160 835 160 835 160 818 c 128,-1,21
 160 801 160 801 148 789 c 128,-1,22
 136 777 136 777 119 777 c 128,-1,23
 102 777 102 777 90 789 c 128,-1,16
 78 801 78 801 78 818 c 128,-1,17
78 203 m 128,-1,25
 78 220 78 220 90 232 c 128,-1,26
 102 244 102 244 119 244 c 128,-1,27
 136 244 136 244 148 232 c 128,-1,28
 160 220 160 220 160 203 c 128,-1,29
 160 186 160 186 148 174 c 128,-1,30
 136 162 136 162 119 162 c 128,-1,31
 102 162 102 162 90 174 c 128,-1,24
 78 186 78 186 78 203 c 128,-1,25
78 321 m 128,-1,33
 78 338 78 338 90 350 c 128,-1,34
 102 362 102 362 119 362 c 128,-1,35
 136 362 136 362 148 350 c 128,-1,36
 160 338 160 338 160 321 c 128,-1,37
 160 304 160 304 148 292 c 128,-1,38
 136 280 136 280 119 280 c 128,-1,39
 102 280 102 280 90 292 c 128,-1,32
 78 304 78 304 78 321 c 128,-1,33
78 439 m 128,-1,41
 78 456 78 456 90 468 c 128,-1,42
 102 480 102 480 119 480 c 128,-1,43
 136 480 136 480 148 468 c 128,-1,44
 160 456 160 456 160 439 c 128,-1,45
 160 422 160 422 148 410 c 128,-1,46
 136 398 136 398 119 398 c 128,-1,47
 102 398 102 398 90 410 c 128,-1,40
 78 422 78 422 78 439 c 128,-1,41
401 116 m 128,-1,49
 401 133 401 133 413 145 c 128,-1,50
 425 157 425 157 442 157 c 128,-1,51
 459 157 459 157 471 145 c 128,-1,52
 483 133 483 133 483 116 c 128,-1,53
 483 99 483 99 471 87 c 128,-1,54
 459 75 459 75 442 75 c 128,-1,55
 425 75 425 75 413 87 c 128,-1,48
 401 99 401 99 401 116 c 128,-1,49
283 116 m 128,-1,57
 283 133 283 133 295 145 c 128,-1,58
 307 157 307 157 324 157 c 128,-1,59
 341 157 341 157 353 145 c 128,-1,60
 365 133 365 133 365 116 c 128,-1,61
 365 99 365 99 353 87 c 128,-1,62
 341 75 341 75 324 75 c 128,-1,63
 307 75 307 75 295 87 c 128,-1,56
 283 99 283 99 283 116 c 128,-1,57
165 116 m 128,-1,65
 165 133 165 133 177 145 c 128,-1,66
 189 157 189 157 206 157 c 128,-1,67
 223 157 223 157 235 145 c 128,-1,68
 247 133 247 133 247 116 c 128,-1,69
 247 99 247 99 235 87 c 128,-1,70
 223 75 223 75 206 75 c 128,-1,71
 189 75 189 75 177 87 c 128,-1,64
 165 99 165 99 165 116 c 128,-1,65
780 116 m 128,-1,73
 780 133 780 133 792 145 c 128,-1,74
 804 157 804 157 821 157 c 128,-1,75
 838 157 838 157 850 145 c 128,-1,76
 862 133 862 133 862 116 c 128,-1,77
 862 99 862 99 850 87 c 128,-1,78
 838 75 838 75 821 75 c 128,-1,79
 804 75 804 75 792 87 c 128,-1,72
 780 99 780 99 780 116 c 128,-1,73
662 116 m 128,-1,81
 662 133 662 133 674 145 c 128,-1,82
 686 157 686 157 703 157 c 128,-1,83
 720 157 720 157 732 145 c 128,-1,84
 744 133 744 133 744 116 c 128,-1,85
 744 99 744 99 732 87 c 128,-1,86
 720 75 720 75 703 75 c 128,-1,87
 686 75 686 75 674 87 c 128,-1,80
 662 99 662 99 662 116 c 128,-1,81
544 116 m 128,-1,89
 544 133 544 133 556 145 c 128,-1,90
 568 157 568 157 585 157 c 128,-1,91
 602 157 602 157 614 145 c 128,-1,92
 626 133 626 133 626 116 c 128,-1,93
 626 99 626 99 614 87 c 128,-1,94
 602 75 602 75 585 75 c 128,-1,95
 568 75 568 75 556 87 c 128,-1,88
 544 99 544 99 544 116 c 128,-1,89
22 48 m 1,96,-1
 22 51 l 1,97,-1
 26 51 l 1,98,-1
 26 48 l 1,99,-1
 22 48 l 1,96,-1
EndSplineSet
EndChar
StartChar: bracketright
Encoding: 93 93 51
Width: 1024
Flags: W
LayerCount: 2
Fore
SplineSet
473 203 m 128,-1,1
 473 220 473 220 485 232 c 128,-1,2
 497 244 497 244 514 244 c 128,-1,3
 531 244 531 244 543 232 c 128,-1,4
 555 220 555 220 555 203 c 128,-1,5
 555 186 555 186 543 174 c 128,-1,6
 531 162 531 162 514 162 c 128,-1,7
 497 162 497 162 485 174 c 128,-1,0
 473 186 473 186 473 203 c 128,-1,1
473 321 m 128,-1,9
 473 338 473 338 485 350 c 128,-1,10
 497 362 497 362 514 362 c 128,-1,11
 531 362 531 362 543 350 c 128,-1,12
 555 338 555 338 555 321 c 128,-1,13
 555 304 555 304 543 292 c 128,-1,14
 531 280 531 280 514 280 c 128,-1,15
 497 280 497 280 485 292 c 128,-1,8
 473 304 473 304 473 321 c 128,-1,9
473 439 m 128,-1,17
 473 456 473 456 485 468 c 128,-1,18
 497 480 497 480 514 480 c 128,-1,19
 531 480 531 480 543 468 c 128,-1,20
 555 456 555 456 555 439 c 128,-1,21
 555 422 555 422 543 410 c 128,-1,22
 531 398 531 398 514 398 c 128,-1,23
 497 398 497 398 485 410 c 128,-1,16
 473 422 473 422 473 439 c 128,-1,17
867 203 m 128,-1,25
 867 220 867 220 879 232 c 128,-1,26
 891 244 891 244 908 244 c 128,-1,27
 925 244 925 244 937 232 c 128,-1,28
 949 220 949 220 949 203 c 128,-1,29
 949 186 949 186 937 174 c 128,-1,30
 925 162 925 162 908 162 c 128,-1,31
 891 162 891 162 879 174 c 128,-1,24
 867 186 867 186 867 203 c 128,-1,25
867 321 m 128,-1,33
 867 338 867 338 879 350 c 128,-1,34
 891 362 891 362 908 362 c 128,-1,35
 925 362 925 362 937 350 c 128,-1,36
 949 338 949 338 949 321 c 128,-1,37
 949 304 949 304 937 292 c 128,-1,38
 925 280 925 280 908 280 c 128,-1,39
 891 280 891 280 879 292 c 128,-1,32
 867 304 867 304 867 321 c 128,-1,33
867 439 m 128,-1,41
 867 456 867 456 879 468 c 128,-1,42
 891 480 891 480 908 480 c 128,-1,43
 925 480 925 480 937 468 c 128,-1,44
 949 456 949 456 949 439 c 128,-1,45
 949 422 949 422 937 410 c 128,-1,46
 925 398 925 398 908 398 c 128,-1,47
 891 398 891 398 879 410 c 128,-1,40
 867 422 867 422 867 439 c 128,-1,41
780 510 m 128,-1,49
 780 527 780 527 792 539 c 128,-1,50
 804 551 804 551 821 551 c 128,-1,51
 838 551 838 551 850 539 c 128,-1,52
 862 527 862 527 862 510 c 128,-1,53
 862 493 862 493 850 481 c 128,-1,54
 838 469 838 469 821 469 c 128,-1,55
 804 469 804 469 792 481 c 128,-1,48
 780 493 780 493 780 510 c 128,-1,49
662 510 m 128,-1,57
 662 527 662 527 674 539 c 128,-1,58
 686 551 686 551 703 551 c 128,-1,59
 720 551 720 551 732 539 c 128,-1,60
 744 527 744 527 744 510 c 128,-1,61
 744 493 744 493 732 481 c 128,-1,62
 720 469 720 469 703 469 c 128,-1,63
 686 469 686 469 674 481 c 128,-1,56
 662 493 662 493 662 510 c 128,-1,57
544 510 m 128,-1,65
 544 527 544 527 556 539 c 128,-1,66
 568 551 568 551 585 551 c 128,-1,67
 602 551 602 551 614 539 c 128,-1,68
 626 527 626 527 626 510 c 128,-1,69
 626 493 626 493 614 481 c 128,-1,70
 602 469 602 469 585 469 c 128,-1,71
 568 469 568 469 556 481 c 128,-1,64
 544 493 544 493 544 510 c 128,-1,65
780 116 m 128,-1,73
 780 133 780 133 792 145 c 128,-1,74
 804 157 804 157 821 157 c 128,-1,75
 838 157 838 157 850 145 c 128,-1,76
 862 133 862 133 862 116 c 128,-1,77
 862 99 862 99 850 87 c 128,-1,78
 838 75 838 75 821 75 c 128,-1,79
 804 75 804 75 792 87 c 128,-1,72
 780 99 780 99 780 116 c 128,-1,73
662 116 m 128,-1,81
 662 133 662 133 674 145 c 128,-1,82
 686 157 686 157 703 157 c 128,-1,83
 720 157 720 157 732 145 c 128,-1,84
 744 133 744 133 744 116 c 128,-1,85
 744 99 744 99 732 87 c 128,-1,86
 720 75 720 75 703 75 c 128,-1,87
 686 75 686 75 674 87 c 128,-1,80
 662 99 662 99 662 116 c 128,-1,81
544 116 m 128,-1,89
 544 133 544 133 556 145 c 128,-1,90
 568 157 568 157 585 157 c 128,-1,91
 602 157 602 157 614 145 c 128,-1,92
 626 133 626 133 626 116 c 128,-1,93
 626 99 626 99 614 87 c 128,-1,94
 602 75 602 75 585 75 c 128,-1,95
 568 75 568 75 556 87 c 128,-1,88
 544 99 544 99 544 116 c 128,-1,89
22 48 m 1,96,-1
 22 51 l 1,97,-1
 26 51 l 1,98,-1
 26 48 l 1,99,-1
 22 48 l 1,96,-1
EndSplineSet
EndChar
StartChar: j
Encoding: 106 106 64
Width: 1024
Flags: W
LayerCount: 2
Fore
SplineSet
473 582 m 128,-1,1
 473 599 473 599 485 611 c 128,-1,2
 497 623 497 623 514 623 c 128,-1,3
 531 623 531 623 543 611 c 128,-1,4
 555 599 555 599 555 582 c 128,-1,5
 555 565 555 565 543 553 c 128,-1,6
 531 541 531 541 514 541 c 128,-1,7
 497 541 497 541 485 553 c 128,-1,0
 473 565 473 565 473 582 c 128,-1,1
473 700 m 128,-1,9
 473 717 473 717 485 729 c 128,-1,10
 497 741 497 741 514 741 c 128,-1,11
 531 741 531 741 543 729 c 128,-1,12
 555 717 555 717 555 700 c 128,-1,13
 555 683 555 683 543 671 c 128,-1,14
 531 659 531 659 514 659 c 128,-1,15
 497 659 497 659 485 671 c 128,-1,8
 473 683 473 683 473 700 c 128,-1,9
473 818 m 128,-1,17
 473 835 473 835 485 847 c 128,-1,18
 497 859 497 859 514 859 c 128,-1,19
 531 859 531 859 543 847 c 128,-1,20
 555 835 555 835 555 818 c 128,-1,21
 555 801 555 801 543 789 c 128,-1,22
 531 777 531 777 514 777 c 128,-1,23
 497 777 497 777 485 789 c 128,-1,16
 473 801 473 801 473 818 c 128,-1,17
473 203 m 128,-1,25
 473 220 473 220 485 232 c 128,-1,26
 497 244 497 244 514 244 c 128,-1,27
 531 244 531 244 543 232 c 128,-1,28
 555 220 555 220 555 203 c 128,-1,29
 555 186 555 186 543 174 c 128,-1,30
 531 162 531 162 514 162 c 128,-1,31
 497 162 497 162 485 174 c 128,-1,24
 473 186 473 186 473 203 c 128,-1,25
473 321 m 128,-1,33
 473 338 473 338 485 350 c 128,-1,34
 497 362 497 362 514 362 c 128,-1,35
 531 362 531 362 543 350 c 128,-1,36
 555 338 555 338 555 321 c 128,-1,37
 555 304 555 304 543 292 c 128,-1,38
 531 280 531 280 514 280 c 128,-1,39
 497 280 497 280 485 292 c 128,-1,32
 473 304 473 304 473 321 c 128,-1,33
473 439 m 128,-1,41
 473 456 473 456 485 468 c 128,-1,42
 497 480 497 480 514 480 c 128,-1,43
 531 480 531 480 543 468 c 128,-1,44
 555 456 555 456 555 439 c 128,-1,45
 555 422 555 422 543 410 c 128,-1,46
 531 398 531 398 514 398 c 128,-1,47
 497 398 497 398 485 410 c 128,-1,40
 473 422 473 422 473 439 c 128,-1,41
78 203 m 128,-1,49
 78 220 78 220 90 232 c 128,-1,50
 102 244 102 244 119 244 c 128,-1,51
 136 244 136 244 148 232 c 128,-1,52
 160 220 160 220 160 203 c 128,-1,53
 160 186 160 186 148 174 c 128,-1,54
 136 162 136 162 119 162 c 128,-1,55
 102 162 102 162 90 174 c 128,-1,48
 78 186 78 186 78 203 c 128,-1,49
78 321 m 128,-1,57
 78 338 78 338 90 350 c 128,-1,58
 102 362 102 362 119 362 c 128,-1,59
 136 362 136 362 148 350 c 128,-1,60
 160 338 160 338 160 321 c 128,-1,61
 160 304 160 304 148 292 c 128,-1,62
 136 280 136 280 119 280 c 128,-1,63
 102 280 102 280 90 292 c 128,-1,56
 78 304 78 304 78 321 c 128,-1,57
78 439 m 128,-1,65
 78 456 78 456 90 468 c 128,-1,66
 102 480 102 480 119 480 c 128,-1,67
 136 480 136 480 148 468 c 128,-1,68
 160 456 160 456 160 439 c 128,-1,69
 160 422 160 422 148 410 c 128,-1,70
 136 398 136 398 119 398 c 128,-1,71
 102 398 102 398 90 410 c 128,-1,64
 78 422 78 422 78 439 c 128,-1,65
401 905 m 128,-1,73
 401 922 401 922 413 934 c 128,-1,74
 425 946 425 946 442 946 c 128,-1,75
 459 946 459 946 471 934 c 128,-1,76
 483 922 483 922 483 905 c 128,-1,77
 483 888 483 888 471 876 c 128,-1,78
 459 864 459 864 442 864 c 128,-1,79
 425 864 425 864 413 876 c 128,-1,72
 401 888 401 888 401 905 c 128,-1,73
283 905 m 128,-1,81
 283 922 283 922 295 934 c 128,-1,82
 307 946 307 946 324 946 c 128,-1,83
 341 946 341 946 353 934 c 128,-1,84
 365 922 365 922 365 905 c 128,-1,85
 365 888 365 888 353 876 c 128,-1,86
 341 864 341 864 324 864 c 128,-1,87
 307 864 307 864 295 876 c 128,-1,80
 283 888 283 888 283 905 c 128,-1,81
165 905 m 128,-1,89
 165 922 165 922 177 934 c 128,-1,90
 189 946 189 946 206 946 c 128,-1,91
 223 946 223 946 235 934 c 128,-1,92
 247 922 247 922 247 905 c 128,-1,93
 247 888 247 888 235 876 c 128,-1,94
 223 864 223 864 206 864 c 128,-1,95
 189 864 189 864 177 876 c 128,-1,88
 165 888 165 888 165 905 c 128,-1,89
780 905 m 128,-1,97
 780 922 780 922 792 934 c 128,-1,98
 804 946 804 946 821 946 c 128,-1,99
 838 946 838 946 850 934 c 128,-1,100
 862 922 862 922 862 905 c 128,-1,101
 862 888 862 888 850 876 c 128,-1,102
 838 864 838 864 821 864 c 128,-1,103
 804 864 804 864 792 876 c 128,-1,96
 780 888 780 888 780 905 c 128,-1,97
662 905 m 128,-1,105
 662 922 662 922 674 934 c 128,-1,106
 686 946 686 946 703 946 c 128,-1,107
 720 946 720 946 732 934 c 128,-1,108
 744 922 744 922 744 905 c 128,-1,109
 744 888 744 888 732 876 c 128,-1,110
 720 864 720 864 703 864 c 128,-1,111
 686 864 686 864 674 876 c 128,-1,104
 662 888 662 888 662 905 c 128,-1,105
544 905 m 128,-1,113
 544 922 544 922 556 934 c 128,-1,114
 568 946 568 946 585 946 c 128,-1,115
 602 946 602 946 614 934 c 128,-1,116
 626 922 626 922 626 905 c 128,-1,117
 626 888 626 888 614 876 c 128,-1,118
 602 864 602 864 585 864 c 128,-1,119
 568 864 568 864 556 876 c 128,-1,112
 544 888 544 888 544 905 c 128,-1,113
401 116 m 128,-1,121
 401 133 401 133 413 145 c 128,-1,122
 425 157 425 157 442 157 c 128,-1,123
 459 157 459 157 471 145 c 128,-1,124
 483 133 483 133 483 116 c 128,-1,125
 483 99 483 99 471 87 c 128,-1,126
 459 75 459 75 442 75 c 128,-1,127
 425 75 425 75 413 87 c 128,-1,120
 401 99 401 99 401 116 c 128,-1,121
283 116 m 128,-1,129
 283 133 283 133 295 145 c 128,-1,130
 307 157 307 157 324 157 c 128,-1,131
 341 157 341 157 353 145 c 128,-1,132
 365 133 365 133 365 116 c 128,-1,133
 365 99 365 99 353 87 c 128,-1,134
 341 75 341 75 324 75 c 128,-1,135
 307 75 307 75 295 87 c 128,-1,128
 283 99 283 99 283 116 c 128,-1,129
165 116 m 128,-1,137
 165 133 165 133 177 145 c 128,-1,138
 189 157 189 157 206 157 c 128,-1,139
 223 157 223 157 235 145 c 128,-1,140
 247 133 247 133 247 116 c 128,-1,141
 247 99 247 99 235 87 c 128,-1,142
 223 75 223 75 206 75 c 128,-1,143
 189 75 189 75 177 87 c 128,-1,136
 165 99 165 99 165 116 c 128,-1,137
22 48 m 1,144,-1
 22 51 l 1,145,-1
 26 51 l 1,146,-1
 26 48 l 1,147,-1
 22 48 l 1,144,-1
EndSplineSet
EndChar
StartChar: q
Encoding: 113 113 71
Width: 1024
Flags: W
LayerCount: 2
Fore
SplineSet
78 582 m 128,-1,1
 78 599 78 599 90 611 c 128,-1,2
 102 623 102 623 119 623 c 128,-1,3
 136 623 136 623 148 611 c 128,-1,4
 160 599 160 599 160 582 c 128,-1,5
 160 565 160 565 148 553 c 128,-1,6
 136 541 136 541 119 541 c 128,-1,7
 102 541 102 541 90 553 c 128,-1,0
 78 565 78 565 78 582 c 128,-1,1
78 700 m 128,-1,9
 78 717 78 717 90 729 c 128,-1,10
 102 741 102 741 119 741 c 128,-1,11
 136 741 136 741 148 729 c 128,-1,12
 160 717 160 717 160 700 c 128,-1,13
 160 683 160 683 148 671 c 128,-1,14
 136 659 136 659 119 659 c 128,-1,15
 102 659 102 659 90 671 c 128,-1,8
 78 683 78 683 78 700 c 128,-1,9
78 818 m 128,-1,17
 78 835 78 835 90 847 c 128,-1,18
 102 859 102 859 119 859 c 128,-1,19
 136 859 136 859 148 847 c 128,-1,20
 160 835 160 835 160 818 c 128,-1,21
 160 801 160 801 148 789 c 128,-1,22
 136 777 136 777 119 777 c 128,-1,23
 102 777 102 777 90 789 c 128,-1,16
 78 801 78 801 78 818 c 128,-1,17
78 203 m 128,-1,25
 78 220 78 220 90 232 c 128,-1,26
 102 244 102 244 119 244 c 128,-1,27
 136 244 136 244 148 232 c 128,-1,28
 160 220 160 220 160 203 c 128,-1,29
 160 186 160 186 148 174 c 128,-1,30
 136 162 136 162 119 162 c 128,-1,31
 102 162 102 162 90 174 c 128,-1,24
 78 186 78 186 78 203 c 128,-1,25
78 321 m 128,-1,33
 78 338 78 338 90 350 c 128,-1,34
 102 362 102 362 119 362 c 128,-1,35
 136 362 136 362 148 350 c 128,-1,36
 160 338 160 338 160 321 c 128,-1,37
 160 304 160 304 148 292 c 128,-1,38
 136 280 136 280 119 280 c 128,-1,39
 102 280 102 280 90 292 c 128,-1,32
 78 304 78 304 78 321 c 128,-1,33
78 439 m 128,-1,41
 78 456 78 456 90 468 c 128,-1,42
 102 480 102 480 119 480 c 128,-1,43
 136 480 136 480 148 468 c 128,-1,44
 160 456 160 456 160 439 c 128,-1,45
 160 422 160 422 148 410 c 128,-1,46
 136 398 136 398 119 398 c 128,-1,47
 102 398 102 398 90 410 c 128,-1,40
 78 422 78 422 78 439 c 128,-1,41
867 582 m 128,-1,49
 867 599 867 599 879 611 c 128,-1,50
 891 623 891 623 908 623 c 128,-1,51
 925 623 925 623 937 611 c 128,-1,52
 949 599 949 599 949 582 c 128,-1,53
 949 565 949 565 937 553 c 128,-1,54
 925 541 925 541 908 541 c 128,-1,55
 891 541 891 541 879 553 c 128,-1,48
 867 565 867 565 867 582 c 128,-1,49
867 700 m 128,-1,57
 867 717 867 717 879 729 c 128,-1,58
 891 741 891 741 908 741 c 128,-1,59
 925 741 925 741 937 729 c 128,-1,60
 949 717 949 717 949 700 c 128,-1,61
 949 683 949 683 937 671 c 128,-1,62
 925 659 925 659 908 659 c 128,-1,63
 891 659 891 659 879 671 c 128,-1,56
 867 683 867 683 867 700 c 128,-1,57
867 818 m 128,-1,65
 867 835 867 835 879 847 c 128,-1,66
 891 859 891 859 908 859 c 128,-1,67
 925 859 925 859 937 847 c 128,-1,68
 949 835 949 835 949 818 c 128,-1,69
 949 801 949 801 937 789 c 128,-1,70
 925 777 925 777 908 777 c 128,-1,71
 891 777 891 777 879 789 c 128,-1,64
 867 801 867 801 867 818 c 128,-1,65
867 203 m 128,-1,73
 867 220 867 220 879 232 c 128,-1,74
 891 244 891 244 908 244 c 128,-1,75
 925 244 925 244 937 232 c 128,-1,76
 949 220 949 220 949 203 c 128,-1,77
 949 186 949 186 937 174 c 128,-1,78
 925 162 925 162 908 162 c 128,-1,79
 891 162 891 162 879 174 c 128,-1,72
 867 186 867 186 867 203 c 128,-1,73
867 321 m 128,-1,81
 867 338 867 338 879 350 c 128,-1,82
 891 362 891 362 908 362 c 128,-1,83
 925 362 925 362 937 350 c 128,-1,84
 949 338 949 338 949 321 c 128,-1,85
 949 304 949 304 937 292 c 128,-1,86
 925 280 925 280 908 280 c 128,-1,87
 891 280 891 280 879 292 c 128,-1,80
 867 304 867 304 867 321 c 128,-1,81
867 439 m 128,-1,89
 867 456 867 456 879 468 c 128,-1,90
 891 480 891 480 908 480 c 128,-1,91
 925 480 925 480 937 468 c 128,-1,92
 949 456 949 456 949 439 c 128,-1,93
 949 422 949 422 937 410 c 128,-1,94
 925 398 925 398 908 398 c 128,-1,95
 891 398 891 398 879 410 c 128,-1,88
 867 422 867 422 867 439 c 128,-1,89
764 200 m 128,-1,97
 752 212 752 212 752 229 c 128,-1,98
 752 246 752 246 764 258 c 128,-1,99
 776 270 776 270 793 270 c 128,-1,100
 810 270 810 270 822 258 c 128,-1,101
 834 246 834 246 834 229 c 128,-1,102
 834 212 834 212 822 200 c 128,-1,103
 810 188 810 188 793 188 c 128,-1,96
 776 188 776 188 764 200 c 128,-1,97
677 284 m 128,-1,105
 665 296 665 296 665 313 c 128,-1,106
 665 330 665 330 677 342 c 128,-1,107
 689 354 689 354 706 354 c 128,-1,108
 723 354 723 354 735 342 c 128,-1,109
 747 330 747 330 747 313 c 128,-1,110
 747 296 747 296 735 284 c 128,-1,111
 723 272 723 272 706 272 c 128,-1,104
 689 272 689 272 677 284 c 128,-1,105
590 374 m 128,-1,113
 578 386 578 386 578 403 c 128,-1,114
 578 420 578 420 590 432 c 128,-1,115
 602 444 602 444 619 444 c 128,-1,116
 636 444 636 444 648 432 c 128,-1,117
 660 420 660 420 660 403 c 128,-1,118
 660 386 660 386 648 374 c 128,-1,119
 636 362 636 362 619 362 c 128,-1,112
 602 362 602 362 590 374 c 128,-1,113
401 905 m 128,-1,121
 401 922 401 922 413 934 c 128,-1,122
 425 946 425 946 442 946 c 128,-1,123
 459 946 459 946 471 934 c 128,-1,124
 483 922 483 922 483 905 c 128,-1,125
 483 888 483 888 471 876 c 128,-1,126
 459 864 459 864 442 864 c 128,-1,127
 425 864 425 864 413 876 c 128,-1,120
 401 888 401 888 401 905 c 128,-1,121
283 905 m 128,-1,129
 283 922 283 922 295 934 c 128,-1,130
 307 946 307 946 324 946 c 128,-1,131
 341 946 341 946 353 934 c 128,-1,132
 365 922 365 922 365 905 c 128,-1,133
 365 888 365 888 353 876 c 128,-1,134
 341 864 341 864 324 864 c 128,-1,135
 307 864 307 864 295 876 c 128,-1,128
 283 888 283 888 283 905 c 128,-1,129
165 905 m 128,-1,137
 165 922 165 922 177 934 c 128,-1,138
 189 946 189 946 206 946 c 128,-1,139
 223 946 223 946 235 934 c 128,-1,140
 247 922 247 922 247 905 c 128,-1,141
 247 888 247 888 235 876 c 128,-1,142
 223 864 223 864 206 864 c 128,-1,143
 189 864 189 864 177 876 c 128,-1,136
 165 888 165 888 165 905 c 128,-1,137
780 905 m 128,-1,145
 780 922 780 922 792 934 c 128,-1,146
 804 946 804 946 821 946 c 128,-1,147
 838 946 838 946 850 934 c 128,-1,148
 862 922 862 922 862 905 c 128,-1,149
 862 888 862 888 850 876 c 128,-1,150
 838 864 838 864 821 864 c 128,-1,151
 804 864 804 864 792 876 c 128,-1,144
 780 888 780 888 780 905 c 128,-1,145
662 905 m 128,-1,153
 662 922 662 922 674 934 c 128,-1,154
 686 946 686 946 703 946 c 128,-1,155
 720 946 720 946 732 934 c 128,-1,156
 744 922 744 922 744 905 c 128,-1,157
 744 888 744 888 732 876 c 128,-1,158
 720 864 720 864 703 864 c 128,-1,159
 686 864 686 864 674 876 c 128,-1,152
 662 888 662 888 662 905 c 128,-1,153
544 905 m 128,-1,161
 544 922 544 922 556 934 c 128,-1,162
 568 946 568 946 585 946 c 128,-1,163
 602 946 602 946 614 934 c 128,-1,164
 626 922 626 922 626 905 c 128,-1,165
 626 888 626 888 614 876 c 128,-1,166
 602 864 602 864 585 864 c 128,-1,167
 568 864 568 864 556 876 c 128,-1,160
 544 888 544 888 544 905 c 128,-1,161
401 116 m 128,-1,169
 401 133 401 133 413 145 c 128,-1,170
 425 157 425 157 442 157 c 128,-1,171
 459 157 459 157 471 145 c 128,-1,172
 483 133 483 133 483 116 c 128,-1,173
 483 99 483 99 471 87 c 128,-1,174
 459 75 459 75 442 75 c 128,-1,175
 425 75 425 75 413 87 c 128,-1,168
 401 99 401 99 401 116 c 128,-1,169
283 116 m 128,-1,177
 283 133 283 133 295 145 c 128,-1,178
 307 157 307 157 324 157 c 128,-1,179
 341 157 341 157 353 145 c 128,-1,180
 365 133 365 133 365 116 c 128,-1,181
 365 99 365 99 353 87 c 128,-1,182
 341 75 341 75 324 75 c 128,-1,183
 307 75 307 75 295 87 c 128,-1,176
 283 99 283 99 283 116 c 128,-1,177
165 116 m 128,-1,185
 165 133 165 133 177 145 c 128,-1,186
 189 157 189 157 206 157 c 128,-1,187
 223 157 223 157 235 145 c 128,-1,188
 247 133 247 133 247 116 c 128,-1,189
 247 99 247 99 235 87 c 128,-1,190
 223 75 223 75 206 75 c 128,-1,191
 189 75 189 75 177 87 c 128,-1,184
 165 99 165 99 165 116 c 128,-1,185
780 116 m 128,-1,193
 780 133 780 133 792 145 c 128,-1,194
 804 157 804 157 821 157 c 128,-1,195
 838 157 838 157 850 145 c 128,-1,196
 862 133 862 133 862 116 c 128,-1,197
 862 99 862 99 850 87 c 128,-1,198
 838 75 838 75 821 75 c 128,-1,199
 804 75 804 75 792 87 c 128,-1,192
 780 99 780 99 780 116 c 128,-1,193
662 116 m 128,-1,201
 662 133 662 133 674 145 c 128,-1,202
 686 157 686 157 703 157 c 128,-1,203
 720 157 720 157 732 145 c 128,-1,204
 744 133 744 133 744 116 c 128,-1,205
 744 99 744 99 732 87 c 128,-1,206
 720 75 720 75 703 75 c 128,-1,207
 686 75 686 75 674 87 c 128,-1,200
 662 99 662 99 662 116 c 128,-1,201
544 116 m 128,-1,209
 544 133 544 133 556 145 c 128,-1,210
 568 157 568 157 585 157 c 128,-1,211
 602 157 602 157 614 145 c 128,-1,212
 626 133 626 133 626 116 c 128,-1,213
 626 99 626 99 614 87 c 128,-1,214
 602 75 602 75 585 75 c 128,-1,215
 568 75 568 75 556 87 c 128,-1,208
 544 99 544 99 544 116 c 128,-1,209
22 48 m 1,216,-1
 22 51 l 1,217,-1
 26 51 l 1,218,-1
 26 48 l 1,219,-1
 22 48 l 1,216,-1
EndSplineSet
EndChar
StartChar: t
Encoding: 116 116 74
Width: 1024
Flags: W
LayerCount: 2
Fore
SplineSet
473 582 m 128,-1,1
 473 599 473 599 485 611 c 128,-1,2
 497 623 497 623 514 623 c 128,-1,3
 531 623 531 623 543 611 c 128,-1,4
 555 599 555 599 555 582 c 128,-1,5
 555 565 555 565 543 553 c 128,-1,6
 531 541 531 541 514 541 c 128,-1,7
 497 541 497 541 485 553 c 128,-1,0
 473 565 473 565 473 582 c 128,-1,1
473 700 m 128,-1,9
 473 717 473 717 485 729 c 128,-1,10
 497 741 497 741 514 741 c 128,-1,11
 531 741 531 741 543 729 c 128,-1,12
 555 717 555 717 555 700 c 128,-1,13
 555 683 555 683 543 671 c 128,-1,14
 531 659 531 659 514 659 c 128,-1,15
 497 659 497 659 485 671 c 128,-1,8
 473 683 473 683 473 700 c 128,-1,9
473 818 m 128,-1,17
 473 835 473 835 485 847 c 128,-1,18
 497 859 497 859 514 859 c 128,-1,19
 531 859 531 859 543 847 c 128,-1,20
 555 835 555 835 555 818 c 128,-1,21
 555 801 555 801 543 789 c 128,-1,22
 531 777 531 777 514 777 c 128,-1,23
 497 777 497 777 485 789 c 128,-1,16
 473 801 473 801 473 818 c 128,-1,17
473 203 m 128,-1,25
 473 220 473 220 485 232 c 128,-1,26
 497 244 497 244 514 244 c 128,-1,27
 531 244 531 244 543 232 c 128,-1,28
 555 220 555 220 555 203 c 128,-1,29
 555 186 555 186 543 174 c 128,-1,30
 531 162 531 162 514 162 c 128,-1,31
 497 162 497 162 485 174 c 128,-1,24
 473 186 473 186 473 203 c 128,-1,25
473 321 m 128,-1,33
 473 338 473 338 485 350 c 128,-1,34
 497 362 497 362 514 362 c 128,-1,35
 531 362 531 362 543 350 c 128,-1,36
 555 338 555 338 555 321 c 128,-1,37
 555 304 555 304 543 292 c 128,-1,38
 531 280 531 280 514 280 c 128,-1,39
 497 280 497 280 485 292 c 128,-1,32
 473 304 473 304 473 321 c 128,-1,33
473 439 m 128,-1,41
 473 456 473 456 485 468 c 128,-1,42
 497 480 497 480 514 480 c 128,-1,43
 531 480 531 480 543 468 c 128,-1,44
 555 456 555 456 555 439 c 128,-1,45
 555 422 555 422 543 410 c 128,-1,46
 531 398 531 398 514 398 c 128,-1,47
 497 398 497 398 485 410 c 128,-1,40
 473 422 473 422 473 439 c 128,-1,41
401 905 m 128,-1,49
 401 922 401 922 413 934 c 128,-1,50
 425 946 425 946 442 946 c 128,-1,51
 459 946 459 946 471 934 c 128,-1,52
 483 922 483 922 483 905 c 128,-1,53
 483 888 483 888 471 876 c 128,-1,54
 459 864 459 864 442 864 c 128,-1,55
 425 864 425 864 413 876 c 128,-1,48
 401 888 401 888 401 905 c 128,-1,49
283 905 m 128,-1,57
 283 922 283 922 295 934 c 128,-1,58
 307 946 307 946 324 946 c 128,-1,59
 341 946 341 946 353 934 c 128,-1,60
 365 922 365 922 365 905 c 128,-1,61
 365 888 365 888 353 876 c 128,-1,62
 341 864 341 864 324 864 c 128,-1,63
 307 864 307 864 295 876 c 128,-1,56
 283 888 283 888 283 905 c 128,-1,57
165 905 m 128,-1,65
 165 922 165 922 177 934 c 128,-1,66
 189 946 189 946 206 946 c 128,-1,67
 223 946 223 946 235 934 c 128,-1,68
 247 922 247 922 247 905 c 128,-1,69
 247 888 247 888 235 876 c 128,-1,70
 223 864 223 864 206 864 c 128,-1,71
 189 864 189 864 177 876 c 128,-1,64
 165 888 165 888 165 905 c 128,-1,65
780 905 m 128,-1,73
 780 922 780 922 792 934 c 128,-1,74
 804 946 804 946 821 946 c 128,-1,75
 838 946 838 946 850 934 c 128,-1,76
 862 922 862 922 862 905 c 128,-1,77
 862 888 862 888 850 876 c 128,-1,78
 838 864 838 864 821 864 c 128,-1,79
 804 864 804 864 792 876 c 128,-1,72
 780 888 780 888 780 905 c 128,-1,73
662 905 m 128,-1,81
 662 922 662 922 674 934 c 128,-1,82
 686 946 686 946 703 946 c 128,-1,83
 720 946 720 946 732 934 c 128,-1,84
 744 922 744 922 744 905 c 128,-1,85
 744 888 744 888 732 876 c 128,-1,86
 720 864 720 864 703 864 c 128,-1,87
 686 864 686 864 674 876 c 128,-1,80
 662 888 662 888 662 905 c 128,-1,81
544 905 m 128,-1,89
 544 922 544 922 556 934 c 128,-1,90
 568 946 568 946 585 946 c 128,-1,91
 602 946 602 946 614 934 c 128,-1,92
 626 922 626 922 626 905 c 128,-1,93
 626 888 626 888 614 876 c 128,-1,94
 602 864 602 864 585 864 c 128,-1,95
 568 864 568 864 556 876 c 128,-1,88
 544 888 544 888 544 905 c 128,-1,89
22 48 m 1,96,-1
 22 51 l 1,97,-1
 26 51 l 1,98,-1
 26 48 l 1,99,-1
 22 48 l 1,96,-1
EndSplineSet
EndChar
StartChar: z
Encoding: 122 122 80
Width: 1024
Flags: W
LayerCount: 2
Fore
SplineSet
584 584 m 128,-1,1
 572 596 572 596 572 613 c 128,-1,2
 572 630 572 630 584 642 c 128,-1,3
 596 654 596 654 613 654 c 128,-1,4
 630 654 630 654 642 642 c 128,-1,5
 654 630 654 630 654 613 c 128,-1,6
 654 596 654 596 642 584 c 128,-1,7
 630 572 630 572 613 572 c 128,-1,0
 596 572 596 572 584 584 c 128,-1,1
677 673 m 128,-1,9
 665 685 665 685 665 702 c 128,-1,10
 665 719 665 719 677 731 c 128,-1,11
 689 743 689 743 706 743 c 128,-1,12
 723 743 723 743 735 731 c 128,-1,13
 747 719 747 719 747 702 c 128,-1,14
 747 685 747 685 735 673 c 128,-1,15
 723 661 723 661 706 661 c 128,-1,8
 689 661 689 661 677 673 c 128,-1,9
761 758 m 128,-1,17
 749 770 749 770 749 787 c 128,-1,18
 749 804 749 804 761 816 c 128,-1,19
 773 828 773 828 790 828 c 128,-1,20
 807 828 807 828 819 816 c 128,-1,21
 831 804 831 804 831 787 c 128,-1,22
 831 770 831 770 819 758 c 128,-1,23
 807 746 807 746 790 746 c 128,-1,16
 773 746 773 746 761 758 c 128,-1,17
203 202 m 128,-1,25
 191 214 191 214 191 231 c 128,-1,26
 191 248 191 248 203 260 c 128,-1,27
 215 272 215 272 232 272 c 128,-1,28
 249 272 249 272 261 260 c 128,-1,29
 273 248 273 248 273 231 c 128,-1,30
 273 214 273 214 261 202 c 128,-1,31
 249 190 249 190 232 190 c 128,-1,24
 215 190 215 190 203 202 c 128,-1,25
288 289 m 128,-1,33
 276 301 276 301 276 318 c 128,-1,34
 276 335 276 335 288 347 c 128,-1,35
 300 359 300 359 316.5 359 c 128,-1,36
 333 359 333 359 345 347 c 128,-1,37
 357 335 357 335 357 318 c 128,-1,38
 357 301 357 301 345 289 c 128,-1,39
 333 277 333 277 316.5 277 c 128,-1,32
 300 277 300 277 288 289 c 128,-1,33
377 376 m 128,-1,41
 365 388 365 388 365 405 c 128,-1,42
 365 422 365 422 377 434 c 128,-1,43
 389 446 389 446 406 446 c 128,-1,44
 423 446 423 446 435 434 c 128,-1,45
 447 422 447 422 447 405 c 128,-1,46
 447 388 447 388 435 376 c 128,-1,47
 423 364 423 364 406 364 c 128,-1,40
 389 364 389 364 377 376 c 128,-1,41
401 905 m 128,-1,49
 401 922 401 922 413 934 c 128,-1,50
 425 946 425 946 442 946 c 128,-1,51
 459 946 459 946 471 934 c 128,-1,52
 483 922 483 922 483 905 c 128,-1,53
 483 888 483 888 471 876 c 128,-1,54
 459 864 459 864 442 864 c 128,-1,55
 425 864 425 864 413 876 c 128,-1,48
 401 888 401 888 401 905 c 128,-1,49
283 905 m 128,-1,57
 283 922 283 922 295 934 c 128,-1,58
 307 946 307 946 324 946 c 128,-1,59
 341 946 341 946 353 934 c 128,-1,60
 365 922 365 922 365 905 c 128,-1,61
 365 888 365 888 353 876 c 128,-1,62
 341 864 341 864 324 864 c 128,-1,63
 307 864 307 864 295 876 c 128,-1,56
 283 888 283 888 283 905 c 128,-1,57
165 905 m 128,-1,65
 165 922 165 922 177 934 c 128,-1,66
 189 946 189 946 206 946 c 128,-1,67
 223 946 223 946 235 934 c 128,-1,68
 247 922 247 922 247 905 c 128,-1,69
 247 888 247 888 235 876 c 128,-1,70
 223 864 223 864 206 864 c 128,-1,71
 189 864 189 864 177 876 c 128,-1,64
 165 888 165 888 165 905 c 128,-1,65
780 905 m 128,-1,73
 780 922 780 922 792 934 c 128,-1,74
 804 946 804 946 821 946 c 128,-1,75
 838 946 838 946 850 934 c 128,-1,76
 862 922 862 922 862 905 c 128,-1,77
 862 888 862 888 850 876 c 128,-1,78
 838 864 838 864 821 864 c 128,-1,79
 804 864 804 864 792 876 c 128,-1,72
 780 888 780 888 780 905 c 128,-1,73
662 905 m 128,-1,81
 662 922 662 922 674 934 c 128,-1,82
 686 946 686 946 703 946 c 128,-1,83
 720 946 720 946 732 934 c 128,-1,84
 744 922 744 922 744 905 c 128,-1,85
 744 888 744 888 732 876 c 128,-1,86
 720 864 720 864 703 864 c 128,-1,87
 686 864 686 864 674 876 c 128,-1,80
 662 888 662 888 662 905 c 128,-1,81
544 905 m 128,-1,89
 544 922 544 922 556 934 c 128,-1,90
 568 946 568 946 585 946 c 128,-1,91
 602 946 602 946 614 934 c 128,-1,92
 626 922 626 922 626 905 c 128,-1,93
 626 888 626 888 614 876 c 128,-1,94
 602 864 602 864 585 864 c 128,-1,95
 568 864 568 864 556 876 c 128,-1,88
 544 888 544 888 544 905 c 128,-1,89
401 116 m 128,-1,97
 401 133 401 133 413 145 c 128,-1,98
 425 157 425 157 442 157 c 128,-1,99
 459 157 459 157 471 145 c 128,-1,100
 483 133 483 133 483 116 c 128,-1,101
 483 99 483 99 471 87 c 128,-1,102
 459 75 459 75 442 75 c 128,-1,103
 425 75 425 75 413 87 c 128,-1,96
 401 99 401 99 401 116 c 128,-1,97
283 116 m 128,-1,105
 283 133 283 133 295 145 c 128,-1,106
 307 157 307 157 324 157 c 128,-1,107
 341 157 341 157 353 145 c 128,-1,108
 365 133 365 133 365 116 c 128,-1,109
 365 99 365 99 353 87 c 128,-1,110
 341 75 341 75 324 75 c 128,-1,111
 307 75 307 75 295 87 c 128,-1,104
 283 99 283 99 283 116 c 128,-1,105
165 116 m 128,-1,113
 165 133 165 133 177 145 c 128,-1,114
 189 157 189 157 206 157 c 128,-1,115
 223 157 223 157 235 145 c 128,-1,116
 247 133 247 133 247 116 c 128,-1,117
 247 99 247 99 235 87 c 128,-1,118
 223 75 223 75 206 75 c 128,-1,119
 189 75 189 75 177 87 c 128,-1,112
 165 99 165 99 165 116 c 128,-1,113
780 116 m 128,-1,121
 780 133 780 133 792 145 c 128,-1,122
 804 157 804 157 821 157 c 128,-1,123
 838 157 838 157 850 145 c 128,-1,124
 862 133 862 133 862 116 c 128,-1,125
 862 99 862 99 850 87 c 128,-1,126
 838 75 838 75 821 75 c 128,-1,127
 804 75 804 75 792 87 c 128,-1,120
 780 99 780 99 780 116 c 128,-1,121
662 116 m 128,-1,129
 662 133 662 133 674 145 c 128,-1,130
 686 157 686 157 703 157 c 128,-1,131
 720 157 720 157 732 145 c 128,-1,132
 744 133 744 133 744 116 c 128,-1,133
 744 99 744 99 732 87 c 128,-1,134
 720 75 720 75 703 75 c 128,-1,135
 686 75 686 75 674 87 c 128,-1,128
 662 99 662 99 662 116 c 128,-1,129
544 116 m 128,-1,137
 544 133 544 133 556 145 c 128,-1,138
 568 157 568 157 585 157 c 128,-1,139
 602 157 602 157 614 145 c 128,-1,140
 626 133 626 133 626 116 c 128,-1,141
 626 99 626 99 614 87 c 128,-1,142
 602 75 602 75 585 75 c 128,-1,143
 568 75 568 75 556 87 c 128,-1,136
 544 99 544 99 544 116 c 128,-1,137
22 48 m 1,144,-1
 22 51 l 1,145,-1
 26 51 l 1,146,-1
 26 48 l 1,147,-1
 22 48 l 1,144,-1
EndSplineSet
EndChar
StartChar: cent
Encoding: 162 162 83
Width: 1024
Flags: W
LayerCount: 2
Fore
SplineSet
867 582 m 128,-1,1
 867 599 867 599 879 611 c 128,-1,2
 891 623 891 623 908 623 c 128,-1,3
 925 623 925 623 937 611 c 128,-1,4
 949 599 949 599 949 582 c 128,-1,5
 949 565 949 565 937 553 c 128,-1,6
 925 541 925 541 908 541 c 128,-1,7
 891 541 891 541 879 553 c 128,-1,0
 867 565 867 565 867 582 c 128,-1,1
867 700 m 128,-1,9
 867 717 867 717 879 729 c 128,-1,10
 891 741 891 741 908 741 c 128,-1,11
 925 741 925 741 937 729 c 128,-1,12
 949 717 949 717 949 700 c 128,-1,13
 949 683 949 683 937 671 c 128,-1,14
 925 659 925 659 908 659 c 128,-1,15
 891 659 891 659 879 671 c 128,-1,8
 867 683 867 683 867 700 c 128,-1,9
867 818 m 128,-1,17
 867 835 867 835 879 847 c 128,-1,18
 891 859 891 859 908 859 c 128,-1,19
 925 859 925 859 937 847 c 128,-1,20
 949 835 949 835 949 818 c 128,-1,21
 949 801 949 801 937 789 c 128,-1,22
 925 777 925 777 908 777 c 128,-1,23
 891 777 891 777 879 789 c 128,-1,16
 867 801 867 801 867 818 c 128,-1,17
867 203 m 128,-1,25
 867 220 867 220 879 232 c 128,-1,26
 891 244 891 244 908 244 c 128,-1,27
 925 244 925 244 937 232 c 128,-1,28
 949 220 949 220 949 203 c 128,-1,29
 949 186 949 186 937 174 c 128,-1,30
 925 162 925 162 908 162 c 128,-1,31
 891 162 891 162 879 174 c 128,-1,24
 867 186 867 186 867 203 c 128,-1,25
867 321 m 128,-1,33
 867 338 867 338 879 350 c 128,-1,34
 891 362 891 362 908 362 c 128,-1,35
 925 362 925 362 937 350 c 128,-1,36
 949 338 949 338 949 321 c 128,-1,37
 949 304 949 304 937 292 c 128,-1,38
 925 280 925 280 908 280 c 128,-1,39
 891 280 891 280 879 292 c 128,-1,32
 867 304 867 304 867 321 c 128,-1,33
867 439 m 128,-1,41
 867 456 867 456 879 468 c 128,-1,42
 891 480 891 480 908 480 c 128,-1,43
 925 480 925 480 937 468 c 128,-1,44
 949 456 949 456 949 439 c 128,-1,45
 949 422 949 422 937 410 c 128,-1,46
 925 398 925 398 908 398 c 128,-1,47
 891 398 891 398 879 410 c 128,-1,40
 867 422 867 422 867 439 c 128,-1,41
22 48 m 1,48,-1
 22 51 l 1,49,-1
 26 51 l 1,50,-1
 26 48 l 1,51,-1
 22 48 l 1,48,-1
EndSplineSet
EndChar
StartChar: sterling
Encoding: 163 163 84
Width: 1024
Flags: W
LayerCount: 2
Fore
SplineSet
473 203 m 128,-1,1
 473 220 473 220 485 232 c 128,-1,2
 497 244 497 244 514 244 c 128,-1,3
 531 244 531 244 543 232 c 128,-1,4
 555 220 555 220 555 203 c 128,-1,5
 555 186 555 186 543 174 c 128,-1,6
 531 162 531 162 514 162 c 128,-1,7
 497 162 497 162 485 174 c 128,-1,0
 473 186 473 186 473 203 c 128,-1,1
473 321 m 128,-1,9
 473 338 473 338 485 350 c 128,-1,10
 497 362 497 362 514 362 c 128,-1,11
 531 362 531 362 543 350 c 128,-1,12
 555 338 555 338 555 321 c 128,-1,13
 555 304 555 304 543 292 c 128,-1,14
 531 280 531 280 514 280 c 128,-1,15
 497 280 497 280 485 292 c 128,-1,8
 473 304 473 304 473 321 c 128,-1,9
473 439 m 128,-1,17
 473 456 473 456 485 468 c 128,-1,18
 497 480 497 480 514 480 c 128,-1,19
 531 480 531 480 543 468 c 128,-1,20
 555 456 555 456 555 439 c 128,-1,21
 555 422 555 422 543 410 c 128,-1,22
 531 398 531 398 514 398 c 128,-1,23
 497 398 497 398 485 410 c 128,-1,16
 473 422 473 422 473 439 c 128,-1,17
867 582 m 128,-1,25
 867 599 867 599 879 611 c 128,-1,26
 891 623 891 623 908 623 c 128,-1,27
 925 623 925 623 937 611 c 128,-1,28
 949 599 949 599 949 582 c 128,-1,29
 949 565 949 565 937 553 c 128,-1,30
 925 541 925 541 908 541 c 128,-1,31
 891 541 891 541 879 553 c 128,-1,24
 867 565 867 565 867 582 c 128,-1,25
867 700 m 128,-1,33
 867 717 867 717 879 729 c 128,-1,34
 891 741 891 741 908 741 c 128,-1,35
 925 741 925 741 937 729 c 128,-1,36
 949 717 949 717 949 700 c 128,-1,37
 949 683 949 683 937 671 c 128,-1,38
 925 659 925 659 908 659 c 128,-1,39
 891 659 891 659 879 671 c 128,-1,32
 867 683 867 683 867 700 c 128,-1,33
867 818 m 128,-1,41
 867 835 867 835 879 847 c 128,-1,42
 891 859 891 859 908 859 c 128,-1,43
 925 859 925 859 937 847 c 128,-1,44
 949 835 949 835 949 818 c 128,-1,45
 949 801 949 801 937 789 c 128,-1,46
 925 777 925 777 908 777 c 128,-1,47
 891 777 891 777 879 789 c 128,-1,40
 867 801 867 801 867 818 c 128,-1,41
780 510 m 128,-1,49
 780 527 780 527 792 539 c 128,-1,50
 804 551 804 551 821 551 c 128,-1,51
 838 551 838 551 850 539 c 128,-1,52
 862 527 862 527 862 510 c 128,-1,53
 862 493 862 493 850 481 c 128,-1,54
 838 469 838 469 821 469 c 128,-1,55
 804 469 804 469 792 481 c 128,-1,48
 780 493 780 493 780 510 c 128,-1,49
662 510 m 128,-1,57
 662 527 662 527 674 539 c 128,-1,58
 686 551 686 551 703 551 c 128,-1,59
 720 551 720 551 732 539 c 128,-1,60
 744 527 744 527 744 510 c 128,-1,61
 744 493 744 493 732 481 c 128,-1,62
 720 469 720 469 703 469 c 128,-1,63
 686 469 686 469 674 481 c 128,-1,56
 662 493 662 493 662 510 c 128,-1,57
544 510 m 128,-1,65
 544 527 544 527 556 539 c 128,-1,66
 568 551 568 551 585 551 c 128,-1,67
 602 551 602 551 614 539 c 128,-1,68
 626 527 626 527 626 510 c 128,-1,69
 626 493 626 493 614 481 c 128,-1,70
 602 469 602 469 585 469 c 128,-1,71
 568 469 568 469 556 481 c 128,-1,64
 544 493 544 493 544 510 c 128,-1,65
780 905 m 128,-1,73
 780 922 780 922 792 934 c 128,-1,74
 804 946 804 946 821 946 c 128,-1,75
 838 946 838 946 850 934 c 128,-1,76
 862 922 862 922 862 905 c 128,-1,77
 862 888 862 888 850 876 c 128,-1,78
 838 864 838 864 821 864 c 128,-1,79
 804 864 804 864 792 876 c 128,-1,72
 780 888 780 888 780 905 c 128,-1,73
662 905 m 128,-1,81
 662 922 662 922 674 934 c 128,-1,82
 686 946 686 946 703 946 c 128,-1,83
 720 946 720 946 732 934 c 128,-1,84
 744 922 744 922 744 905 c 128,-1,85
 744 888 744 888 732 876 c 128,-1,86
 720 864 720 864 703 864 c 128,-1,87
 686 864 686 864 674 876 c 128,-1,80
 662 888 662 888 662 905 c 128,-1,81
544 905 m 128,-1,89
 544 922 544 922 556 934 c 128,-1,90
 568 946 568 946 585 946 c 128,-1,91
 602 946 602 946 614 934 c 128,-1,92
 626 922 626 922 626 905 c 128,-1,93
 626 888 626 888 614 876 c 128,-1,94
 602 864 602 864 585 864 c 128,-1,95
 568 864 568 864 556 876 c 128,-1,88
 544 888 544 888 544 905 c 128,-1,89
780 116 m 128,-1,97
 780 133 780 133 792 145 c 128,-1,98
 804 157 804 157 821 157 c 128,-1,99
 838 157 838 157 850 145 c 128,-1,100
 862 133 862 133 862 116 c 128,-1,101
 862 99 862 99 850 87 c 128,-1,102
 838 75 838 75 821 75 c 128,-1,103
 804 75 804 75 792 87 c 128,-1,96
 780 99 780 99 780 116 c 128,-1,97
662 116 m 128,-1,105
 662 133 662 133 674 145 c 128,-1,106
 686 157 686 157 703 157 c 128,-1,107
 720 157 720 157 732 145 c 128,-1,108
 744 133 744 133 744 116 c 128,-1,109
 744 99 744 99 732 87 c 128,-1,110
 720 75 720 75 703 75 c 128,-1,111
 686 75 686 75 674 87 c 128,-1,104
 662 99 662 99 662 116 c 128,-1,105
544 116 m 128,-1,113
 544 133 544 133 556 145 c 128,-1,114
 568 157 568 157 585 157 c 128,-1,115
 602 157 602 157 614 145 c 128,-1,116
 626 133 626 133 626 116 c 128,-1,117
 626 99 626 99 614 87 c 128,-1,118
 602 75 602 75 585 75 c 128,-1,119
 568 75 568 75 556 87 c 128,-1,112
 544 99 544 99 544 116 c 128,-1,113
22 48 m 1,120,-1
 22 51 l 1,121,-1
 26 51 l 1,122,-1
 26 48 l 1,123,-1
 22 48 l 1,120,-1
EndSplineSet
EndChar
StartChar: guillemotleft
Encoding: 171 171 92
Width: 1024
Flags: W
LayerCount: 2
Fore
SplineSet
473 582 m 128,-1,1
 473 599 473 599 485 611 c 128,-1,2
 497 623 497 623 514 623 c 128,-1,3
 531 623 531 623 543 611 c 128,-1,4
 555 599 555 599 555 582 c 128,-1,5
 555 565 555 565 543 553 c 128,-1,6
 531 541 531 541 514 541 c 128,-1,7
 497 541 497 541 485 553 c 128,-1,0
 473 565 473 565 473 582 c 128,-1,1
473 700 m 128,-1,9
 473 717 473 717 485 729 c 128,-1,10
 497 741 497 741 514 741 c 128,-1,11
 531 741 531 741 543 729 c 128,-1,12
 555 717 555 717 555 700 c 128,-1,13
 555 683 555 683 543 671 c 128,-1,14
 531 659 531 659 514 659 c 128,-1,15
 497 659 497 659 485 671 c 128,-1,8
 473 683 473 683 473 700 c 128,-1,9
473 818 m 128,-1,17
 473 835 473 835 485 847 c 128,-1,18
 497 859 497 859 514 859 c 128,-1,19
 531 859 531 859 543 847 c 128,-1,20
 555 835 555 835 555 818 c 128,-1,21
 555 801 555 801 543 789 c 128,-1,22
 531 777 531 777 514 777 c 128,-1,23
 497 777 497 777 485 789 c 128,-1,16
 473 801 473 801 473 818 c 128,-1,17
473 203 m 128,-1,25
 473 220 473 220 485 232 c 128,-1,26
 497 244 497 244 514 244 c 128,-1,27
 531 244 531 244 543 232 c 128,-1,28
 555 220 555 220 555 203 c 128,-1,29
 555 186 555 186 543 174 c 128,-1,30
 531 162 531 162 514 162 c 128,-1,31
 497 162 497 162 485 174 c 128,-1,24
 473 186 473 186 473 203 c 128,-1,25
473 321 m 128,-1,33
 473 338 473 338 485 350 c 128,-1,34
 497 362 497 362 514 362 c 128,-1,35
 531 362 531 362 543 350 c 128,-1,36
 555 338 555 338 555 321 c 128,-1,37
 555 304 555 304 543 292 c 128,-1,38
 531 280 531 280 514 280 c 128,-1,39
 497 280 497 280 485 292 c 128,-1,32
 473 304 473 304 473 321 c 128,-1,33
473 439 m 128,-1,41
 473 456 473 456 485 468 c 128,-1,42
 497 480 497 480 514 480 c 128,-1,43
 531 480 531 480 543 468 c 128,-1,44
 555 456 555 456 555 439 c 128,-1,45
 555 422 555 422 543 410 c 128,-1,46
 531 398 531 398 514 398 c 128,-1,47
 497 398 497 398 485 410 c 128,-1,40
 473 422 473 422 473 439 c 128,-1,41
78 582 m 128,-1,49
 78 599 78 599 90 611 c 128,-1,50
 102 623 102 623 119 623 c 128,-1,51
 136 623 136 623 148 611 c 128,-1,52
 160 599 160 599 160 582 c 128,-1,53
 160 565 160 565 148 553 c 128,-1,54
 136 541 136 541 119 541 c 128,-1,55
 102 541 102 541 90 553 c 128,-1,48
 78 565 78 565 78 582 c 128,-1,49
78 700 m 128,-1,57
 78 717 78 717 90 729 c 128,-1,58
 102 741 102 741 119 741 c 128,-1,59
 136 741 136 741 148 729 c 128,-1,60
 160 717 160 717 160 700 c 128,-1,61
 160 683 160 683 148 671 c 128,-1,62
 136 659 136 659 119 659 c 128,-1,63
 102 659 102 659 90 671 c 128,-1,56
 78 683 78 683 78 700 c 128,-1,57
78 818 m 128,-1,65
 78 835 78 835 90 847 c 128,-1,66
 102 859 102 859 119 859 c 128,-1,67
 136 859 136 859 148 847 c 128,-1,68
 160 835 160 835 160 818 c 128,-1,69
 160 801 160 801 148 789 c 128,-1,70
 136 777 136 777 119 777 c 128,-1,71
 102 777 102 777 90 789 c 128,-1,64
 78 801 78 801 78 818 c 128,-1,65
78 203 m 128,-1,73
 78 220 78 220 90 232 c 128,-1,74
 102 244 102 244 119 244 c 128,-1,75
 136 244 136 244 148 232 c 128,-1,76
 160 220 160 220 160 203 c 128,-1,77
 160 186 160 186 148 174 c 128,-1,78
 136 162 136 162 119 162 c 128,-1,79
 102 162 102 162 90 174 c 128,-1,72
 78 186 78 186 78 203 c 128,-1,73
78 321 m 128,-1,81
 78 338 78 338 90 350 c 128,-1,82
 102 362 102 362 119 362 c 128,-1,83
 136 362 136 362 148 350 c 128,-1,84
 160 338 160 338 160 321 c 128,-1,85
 160 304 160 304 148 292 c 128,-1,86
 136 280 136 280 119 280 c 128,-1,87
 102 280 102 280 90 292 c 128,-1,80
 78 304 78 304 78 321 c 128,-1,81
78 439 m 128,-1,89
 78 456 78 456 90 468 c 128,-1,90
 102 480 102 480 119 480 c 128,-1,91
 136 480 136 480 148 468 c 128,-1,92
 160 456 160 456 160 439 c 128,-1,93
 160 422 160 422 148 410 c 128,-1,94
 136 398 136 398 119 398 c 128,-1,95
 102 398 102 398 90 410 c 128,-1,88
 78 422 78 422 78 439 c 128,-1,89
867 582 m 128,-1,97
 867 599 867 599 879 611 c 128,-1,98
 891 623 891 623 908 623 c 128,-1,99
 925 623 925 623 937 611 c 128,-1,100
 949 599 949 599 949 582 c 128,-1,101
 949 565 949 565 937 553 c 128,-1,102
 925 541 925 541 908 541 c 128,-1,103
 891 541 891 541 879 553 c 128,-1,96
 867 565 867 565 867 582 c 128,-1,97
867 700 m 128,-1,105
 867 717 867 717 879 729 c 128,-1,106
 891 741 891 741 908 741 c 128,-1,107
 925 741 925 741 937 729 c 128,-1,108
 949 717 949 717 949 700 c 128,-1,109
 949 683 949 683 937 671 c 128,-1,110
 925 659 925 659 908 659 c 128,-1,111
 891 659 891 659 879 671 c 128,-1,104
 867 683 867 683 867 700 c 128,-1,105
867 818 m 128,-1,113
 867 835 867 835 879 847 c 128,-1,114
 891 859 891 859 908 859 c 128,-1,115
 925 859 925 859 937 847 c 128,-1,116
 949 835 949 835 949 818 c 128,-1,117
 949 801 949 801 937 789 c 128,-1,118
 925 777 925 777 908 777 c 128,-1,119
 891 777 891 777 879 789 c 128,-1,112
 867 801 867 801 867 818 c 128,-1,113
867 203 m 128,-1,121
 867 220 867 220 879 232 c 128,-1,122
 891 244 891 244 908 244 c 128,-1,123
 925 244 925 244 937 232 c 128,-1,124
 949 220 949 220 949 203 c 128,-1,125
 949 186 949 186 937 174 c 128,-1,126
 925 162 925 162 908 162 c 128,-1,127
 891 162 891 162 879 174 c 128,-1,120
 867 186 867 186 867 203 c 128,-1,121
867 321 m 128,-1,129
 867 338 867 338 879 350 c 128,-1,130
 891 362 891 362 908 362 c 128,-1,131
 925 362 925 362 937 350 c 128,-1,132
 949 338 949 338 949 321 c 128,-1,133
 949 304 949 304 937 292 c 128,-1,134
 925 280 925 280 908 280 c 128,-1,135
 891 280 891 280 879 292 c 128,-1,128
 867 304 867 304 867 321 c 128,-1,129
867 439 m 128,-1,137
 867 456 867 456 879 468 c 128,-1,138
 891 480 891 480 908 480 c 128,-1,139
 925 480 925 480 937 468 c 128,-1,140
 949 456 949 456 949 439 c 128,-1,141
 949 422 949 422 937 410 c 128,-1,142
 925 398 925 398 908 398 c 128,-1,143
 891 398 891 398 879 410 c 128,-1,136
 867 422 867 422 867 439 c 128,-1,137
780 905 m 128,-1,145
 780 922 780 922 792 934 c 128,-1,146
 804 946 804 946 821 946 c 128,-1,147
 838 946 838 946 850 934 c 128,-1,148
 862 922 862 922 862 905 c 128,-1,149
 862 888 862 888 850 876 c 128,-1,150
 838 864 838 864 821 864 c 128,-1,151
 804 864 804 864 792 876 c 128,-1,144
 780 888 780 888 780 905 c 128,-1,145
662 905 m 128,-1,153
 662 922 662 922 674 934 c 128,-1,154
 686 946 686 946 703 946 c 128,-1,155
 720 946 720 946 732 934 c 128,-1,156
 744 922 744 922 744 905 c 128,-1,157
 744 888 744 888 732 876 c 128,-1,158
 720 864 720 864 703 864 c 128,-1,159
 686 864 686 864 674 876 c 128,-1,152
 662 888 662 888 662 905 c 128,-1,153
544 905 m 128,-1,161
 544 922 544 922 556 934 c 128,-1,162
 568 946 568 946 585 946 c 128,-1,163
 602 946 602 946 614 934 c 128,-1,164
 626 922 626 922 626 905 c 128,-1,165
 626 888 626 888 614 876 c 128,-1,166
 602 864 602 864 585 864 c 128,-1,167
 568 864 568 864 556 876 c 128,-1,160
 544 888 544 888 544 905 c 128,-1,161
780 116 m 128,-1,169
 780 133 780 133 792 145 c 128,-1,170
 804 157 804 157 821 157 c 128,-1,171
 838 157 838 157 850 145 c 128,-1,172
 862 133 862 133 862 116 c 128,-1,173
 862 99 862 99 850 87 c 128,-1,174
 838 75 838 75 821 75 c 128,-1,175
 804 75 804 75 792 87 c 128,-1,168
 780 99 780 99 780 116 c 128,-1,169
662 116 m 128,-1,177
 662 133 662 133 674 145 c 128,-1,178
 686 157 686 157 703 157 c 128,-1,179
 720 157 720 157 732 145 c 128,-1,180
 744 133 744 133 744 116 c 128,-1,181
 744 99 744 99 732 87 c 128,-1,182
 720 75 720 75 703 75 c 128,-1,183
 686 75 686 75 674 87 c 128,-1,176
 662 99 662 99 662 116 c 128,-1,177
544 116 m 128,-1,185
 544 133 544 133 556 145 c 128,-1,186
 568 157 568 157 585 157 c 128,-1,187
 602 157 602 157 614 145 c 128,-1,188
 626 133 626 133 626 116 c 128,-1,189
 626 99 626 99 614 87 c 128,-1,190
 602 75 602 75 585 75 c 128,-1,191
 568 75 568 75 556 87 c 128,-1,184
 544 99 544 99 544 116 c 128,-1,185
22 48 m 1,192,-1
 22 51 l 1,193,-1
 26 51 l 1,194,-1
 26 48 l 1,195,-1
 22 48 l 1,192,-1
EndSplineSet
EndChar
StartChar: uni00B2
Encoding: 178 178 99
Width: 1024
Flags: W
LayerCount: 2
Fore
SplineSet
78 582 m 128,-1,1
 78 599 78 599 90 611 c 128,-1,2
 102 623 102 623 119 623 c 128,-1,3
 136 623 136 623 148 611 c 128,-1,4
 160 599 160 599 160 582 c 128,-1,5
 160 565 160 565 148 553 c 128,-1,6
 136 541 136 541 119 541 c 128,-1,7
 102 541 102 541 90 553 c 128,-1,0
 78 565 78 565 78 582 c 128,-1,1
78 700 m 128,-1,9
 78 717 78 717 90 729 c 128,-1,10
 102 741 102 741 119 741 c 128,-1,11
 136 741 136 741 148 729 c 128,-1,12
 160 717 160 717 160 700 c 128,-1,13
 160 683 160 683 148 671 c 128,-1,14
 136 659 136 659 119 659 c 128,-1,15
 102 659 102 659 90 671 c 128,-1,8
 78 683 78 683 78 700 c 128,-1,9
78 818 m 128,-1,17
 78 835 78 835 90 847 c 128,-1,18
 102 859 102 859 119 859 c 128,-1,19
 136 859 136 859 148 847 c 128,-1,20
 160 835 160 835 160 818 c 128,-1,21
 160 801 160 801 148 789 c 128,-1,22
 136 777 136 777 119 777 c 128,-1,23
 102 777 102 777 90 789 c 128,-1,16
 78 801 78 801 78 818 c 128,-1,17
78 203 m 128,-1,25
 78 220 78 220 90 232 c 128,-1,26
 102 244 102 244 119 244 c 128,-1,27
 136 244 136 244 148 232 c 128,-1,28
 160 220 160 220 160 203 c 128,-1,29
 160 186 160 186 148 174 c 128,-1,30
 136 162 136 162 119 162 c 128,-1,31
 102 162 102 162 90 174 c 128,-1,24
 78 186 78 186 78 203 c 128,-1,25
78 321 m 128,-1,33
 78 338 78 338 90 350 c 128,-1,34
 102 362 102 362 119 362 c 128,-1,35
 136 362 136 362 148 350 c 128,-1,36
 160 338 160 338 160 321 c 128,-1,37
 160 304 160 304 148 292 c 128,-1,38
 136 280 136 280 119 280 c 128,-1,39
 102 280 102 280 90 292 c 128,-1,32
 78 304 78 304 78 321 c 128,-1,33
78 439 m 128,-1,41
 78 456 78 456 90 468 c 128,-1,42
 102 480 102 480 119 480 c 128,-1,43
 136 480 136 480 148 468 c 128,-1,44
 160 456 160 456 160 439 c 128,-1,45
 160 422 160 422 148 410 c 128,-1,46
 136 398 136 398 119 398 c 128,-1,47
 102 398 102 398 90 410 c 128,-1,40
 78 422 78 422 78 439 c 128,-1,41
867 582 m 128,-1,49
 867 599 867 599 879 611 c 128,-1,50
 891 623 891 623 908 623 c 128,-1,51
 925 623 925 623 937 611 c 128,-1,52
 949 599 949 599 949 582 c 128,-1,53
 949 565 949 565 937 553 c 128,-1,54
 925 541 925 541 908 541 c 128,-1,55
 891 541 891 541 879 553 c 128,-1,48
 867 565 867 565 867 582 c 128,-1,49
867 700 m 128,-1,57
 867 717 867 717 879 729 c 128,-1,58
 891 741 891 741 908 741 c 128,-1,59
 925 741 925 741 937 729 c 128,-1,60
 949 717 949 717 949 700 c 128,-1,61
 949 683 949 683 937 671 c 128,-1,62
 925 659 925 659 908 659 c 128,-1,63
 891 659 891 659 879 671 c 128,-1,56
 867 683 867 683 867 700 c 128,-1,57
867 818 m 128,-1,65
 867 835 867 835 879 847 c 128,-1,66
 891 859 891 859 908 859 c 128,-1,67
 925 859 925 859 937 847 c 128,-1,68
 949 835 949 835 949 818 c 128,-1,69
 949 801 949 801 937 789 c 128,-1,70
 925 777 925 777 908 777 c 128,-1,71
 891 777 891 777 879 789 c 128,-1,64
 867 801 867 801 867 818 c 128,-1,65
867 203 m 128,-1,73
 867 220 867 220 879 232 c 128,-1,74
 891 244 891 244 908 244 c 128,-1,75
 925 244 925 244 937 232 c 128,-1,76
 949 220 949 220 949 203 c 128,-1,77
 949 186 949 186 937 174 c 128,-1,78
 925 162 925 162 908 162 c 128,-1,79
 891 162 891 162 879 174 c 128,-1,72
 867 186 867 186 867 203 c 128,-1,73
867 321 m 128,-1,81
 867 338 867 338 879 350 c 128,-1,82
 891 362 891 362 908 362 c 128,-1,83
 925 362 925 362 937 350 c 128,-1,84
 949 338 949 338 949 321 c 128,-1,85
 949 304 949 304 937 292 c 128,-1,86
 925 280 925 280 908 280 c 128,-1,87
 891 280 891 280 879 292 c 128,-1,80
 867 304 867 304 867 321 c 128,-1,81
867 439 m 128,-1,89
 867 456 867 456 879 468 c 128,-1,90
 891 480 891 480 908 480 c 128,-1,91
 925 480 925 480 937 468 c 128,-1,92
 949 456 949 456 949 439 c 128,-1,93
 949 422 949 422 937 410 c 128,-1,94
 925 398 925 398 908 398 c 128,-1,95
 891 398 891 398 879 410 c 128,-1,88
 867 422 867 422 867 439 c 128,-1,89
780 905 m 128,-1,97
 780 922 780 922 792 934 c 128,-1,98
 804 946 804 946 821 946 c 128,-1,99
 838 946 838 946 850 934 c 128,-1,100
 862 922 862 922 862 905 c 128,-1,101
 862 888 862 888 850 876 c 128,-1,102
 838 864 838 864 821 864 c 128,-1,103
 804 864 804 864 792 876 c 128,-1,96
 780 888 780 888 780 905 c 128,-1,97
662 905 m 128,-1,105
 662 922 662 922 674 934 c 128,-1,106
 686 946 686 946 703 946 c 128,-1,107
 720 946 720 946 732 934 c 128,-1,108
 744 922 744 922 744 905 c 128,-1,109
 744 888 744 888 732 876 c 128,-1,110
 720 864 720 864 703 864 c 128,-1,111
 686 864 686 864 674 876 c 128,-1,104
 662 888 662 888 662 905 c 128,-1,105
544 905 m 128,-1,113
 544 922 544 922 556 934 c 128,-1,114
 568 946 568 946 585 946 c 128,-1,115
 602 946 602 946 614 934 c 128,-1,116
 626 922 626 922 626 905 c 128,-1,117
 626 888 626 888 614 876 c 128,-1,118
 602 864 602 864 585 864 c 128,-1,119
 568 864 568 864 556 876 c 128,-1,112
 544 888 544 888 544 905 c 128,-1,113
22 48 m 1,120,-1
 22 51 l 1,121,-1
 26 51 l 1,122,-1
 26 48 l 1,123,-1
 22 48 l 1,120,-1
EndSplineSet
EndChar
StartChar: onehalf
Encoding: 189 189 110
Width: 640
Flags: W
LayerCount: 2
Fore
SplineSet
469 585 m 128,-1,1
 469 602 469 602 481 614 c 128,-1,2
 493 626 493 626 510 626 c 128,-1,3
 527 626 527 626 539 614 c 128,-1,4
 551 602 551 602 551 585 c 128,-1,5
 551 568 551 568 539 556 c 128,-1,6
 527 544 527 544 510 544 c 128,-1,7
 493 544 493 544 481 556 c 128,-1,0
 469 568 469 568 469 585 c 128,-1,1
469 703 m 128,-1,9
 469 720 469 720 481 732 c 128,-1,10
 493 744 493 744 510 744 c 128,-1,11
 527 744 527 744 539 732 c 128,-1,12
 551 720 551 720 551 703 c 128,-1,13
 551 686 551 686 539 674 c 128,-1,14
 527 662 527 662 510 662 c 128,-1,15
 493 662 493 662 481 674 c 128,-1,8
 469 686 469 686 469 703 c 128,-1,9
469 821 m 128,-1,17
 469 838 469 838 481 850 c 128,-1,18
 493 862 493 862 510 862 c 128,-1,19
 527 862 527 862 539 850 c 128,-1,20
 551 838 551 838 551 821 c 128,-1,21
 551 804 551 804 539 792 c 128,-1,22
 527 780 527 780 510 780 c 128,-1,23
 493 780 493 780 481 792 c 128,-1,16
 469 804 469 804 469 821 c 128,-1,17
469 206 m 128,-1,25
 469 223 469 223 481 235 c 128,-1,26
 493 247 493 247 510 247 c 128,-1,27
 527 247 527 247 539 235 c 128,-1,28
 551 223 551 223 551 206 c 128,-1,29
 551 189 551 189 539 177 c 128,-1,30
 527 165 527 165 510 165 c 128,-1,31
 493 165 493 165 481 177 c 128,-1,24
 469 189 469 189 469 206 c 128,-1,25
469 324 m 128,-1,33
 469 341 469 341 481 353 c 128,-1,34
 493 365 493 365 510 365 c 128,-1,35
 527 365 527 365 539 353 c 128,-1,36
 551 341 551 341 551 324 c 128,-1,37
 551 307 551 307 539 295 c 128,-1,38
 527 283 527 283 510 283 c 128,-1,39
 493 283 493 283 481 295 c 128,-1,32
 469 307 469 307 469 324 c 128,-1,33
469 442 m 128,-1,41
 469 459 469 459 481 471 c 128,-1,42
 493 483 493 483 510 483 c 128,-1,43
 527 483 527 483 539 471 c 128,-1,44
 551 459 551 459 551 442 c 128,-1,45
 551 425 551 425 539 413 c 128,-1,46
 527 401 527 401 510 401 c 128,-1,47
 493 401 493 401 481 413 c 128,-1,40
 469 425 469 425 469 442 c 128,-1,41
398 908 m 128,-1,49
 398 925 398 925 410 937 c 128,-1,50
 422 949 422 949 439 949 c 128,-1,51
 456 949 456 949 468 937 c 128,-1,52
 480 925 480 925 480 908 c 128,-1,53
 480 891 480 891 468 879 c 128,-1,54
 456 867 456 867 439 867 c 128,-1,55
 422 867 422 867 410 879 c 128,-1,48
 398 891 398 891 398 908 c 128,-1,49
280 908 m 128,-1,57
 280 925 280 925 292 937 c 128,-1,58
 304 949 304 949 321 949 c 128,-1,59
 338 949 338 949 350 937 c 128,-1,60
 362 925 362 925 362 908 c 128,-1,61
 362 891 362 891 350 879 c 128,-1,62
 338 867 338 867 321 867 c 128,-1,63
 304 867 304 867 292 879 c 128,-1,56
 280 891 280 891 280 908 c 128,-1,57
162 908 m 128,-1,65
 162 925 162 925 174 937 c 128,-1,66
 186 949 186 949 203 949 c 128,-1,67
 220 949 220 949 232 937 c 128,-1,68
 244 925 244 925 244 908 c 128,-1,69
 244 891 244 891 232 879 c 128,-1,70
 220 867 220 867 203 867 c 128,-1,71
 186 867 186 867 174 879 c 128,-1,64
 162 891 162 891 162 908 c 128,-1,65
608 973 m 1,72,-1
 608 976 l 1,73,-1
 611 976 l 1,74,-1
 611 973 l 1,75,-1
 608 973 l 1,72,-1
29 973 m 1,76,-1
 29 976 l 1,77,-1
 32 976 l 1,78,-1
 32 973 l 1,79,-1
 29 973 l 1,76,-1
608 48 m 1,80,-1
 608 51 l 1,81,-1
 611 51 l 1,82,-1
 611 48 l 1,83,-1
 608 48 l 1,80,-1
29 48 m 1,84,-1
 29 51 l 1,85,-1
 32 51 l 1,86,-1
 32 48 l 1,87,-1
 29 48 l 1,84,-1
EndSplineSet
EndChar
StartChar: Aacute
Encoding: 193 193 114
Width: 1024
Flags: W
LayerCount: 2
Fore
SplineSet
78 203 m 128,-1,1
 78 220 78 220 90 232 c 128,-1,2
 102 244 102 244 119 244 c 128,-1,3
 136 244 136 244 148 232 c 128,-1,4
 160 220 160 220 160 203 c 128,-1,5
 160 186 160 186 148 174 c 128,-1,6
 136 162 136 162 119 162 c 128,-1,7
 102 162 102 162 90 174 c 128,-1,0
 78 186 78 186 78 203 c 128,-1,1
78 321 m 128,-1,9
 78 338 78 338 90 350 c 128,-1,10
 102 362 102 362 119 362 c 128,-1,11
 136 362 136 362 148 350 c 128,-1,12
 160 338 160 338 160 321 c 128,-1,13
 160 304 160 304 148 292 c 128,-1,14
 136 280 136 280 119 280 c 128,-1,15
 102 280 102 280 90 292 c 128,-1,8
 78 304 78 304 78 321 c 128,-1,9
78 439 m 128,-1,17
 78 456 78 456 90 468 c 128,-1,18
 102 480 102 480 119 480 c 128,-1,19
 136 480 136 480 148 468 c 128,-1,20
 160 456 160 456 160 439 c 128,-1,21
 160 422 160 422 148 410 c 128,-1,22
 136 398 136 398 119 398 c 128,-1,23
 102 398 102 398 90 410 c 128,-1,16
 78 422 78 422 78 439 c 128,-1,17
401 510 m 128,-1,25
 401 527 401 527 413 539 c 128,-1,26
 425 551 425 551 442 551 c 128,-1,27
 459 551 459 551 471 539 c 128,-1,28
 483 527 483 527 483 510 c 128,-1,29
 483 493 483 493 471 481 c 128,-1,30
 459 469 459 469 442 469 c 128,-1,31
 425 469 425 469 413 481 c 128,-1,24
 401 493 401 493 401 510 c 128,-1,25
283 510 m 128,-1,33
 283 527 283 527 295 539 c 128,-1,34
 307 551 307 551 324 551 c 128,-1,35
 341 551 341 551 353 539 c 128,-1,36
 365 527 365 527 365 510 c 128,-1,37
 365 493 365 493 353 481 c 128,-1,38
 341 469 341 469 324 469 c 128,-1,39
 307 469 307 469 295 481 c 128,-1,32
 283 493 283 493 283 510 c 128,-1,33
165 510 m 128,-1,41
 165 527 165 527 177 539 c 128,-1,42
 189 551 189 551 206 551 c 128,-1,43
 223 551 223 551 235 539 c 128,-1,44
 247 527 247 527 247 510 c 128,-1,45
 247 493 247 493 235 481 c 128,-1,46
 223 469 223 469 206 469 c 128,-1,47
 189 469 189 469 177 481 c 128,-1,40
 165 493 165 493 165 510 c 128,-1,41
401 905 m 128,-1,49
 401 922 401 922 413 934 c 128,-1,50
 425 946 425 946 442 946 c 128,-1,51
 459 946 459 946 471 934 c 128,-1,52
 483 922 483 922 483 905 c 128,-1,53
 483 888 483 888 471 876 c 128,-1,54
 459 864 459 864 442 864 c 128,-1,55
 425 864 425 864 413 876 c 128,-1,48
 401 888 401 888 401 905 c 128,-1,49
283 905 m 128,-1,57
 283 922 283 922 295 934 c 128,-1,58
 307 946 307 946 324 946 c 128,-1,59
 341 946 341 946 353 934 c 128,-1,60
 365 922 365 922 365 905 c 128,-1,61
 365 888 365 888 353 876 c 128,-1,62
 341 864 341 864 324 864 c 128,-1,63
 307 864 307 864 295 876 c 128,-1,56
 283 888 283 888 283 905 c 128,-1,57
165 905 m 128,-1,65
 165 922 165 922 177 934 c 128,-1,66
 189 946 189 946 206 946 c 128,-1,67
 223 946 223 946 235 934 c 128,-1,68
 247 922 247 922 247 905 c 128,-1,69
 247 888 247 888 235 876 c 128,-1,70
 223 864 223 864 206 864 c 128,-1,71
 189 864 189 864 177 876 c 128,-1,64
 165 888 165 888 165 905 c 128,-1,65
401 116 m 128,-1,73
 401 133 401 133 413 145 c 128,-1,74
 425 157 425 157 442 157 c 128,-1,75
 459 157 459 157 471 145 c 128,-1,76
 483 133 483 133 483 116 c 128,-1,77
 483 99 483 99 471 87 c 128,-1,78
 459 75 459 75 442 75 c 128,-1,79
 425 75 425 75 413 87 c 128,-1,72
 401 99 401 99 401 116 c 128,-1,73
283 116 m 128,-1,81
 283 133 283 133 295 145 c 128,-1,82
 307 157 307 157 324 157 c 128,-1,83
 341 157 341 157 353 145 c 128,-1,84
 365 133 365 133 365 116 c 128,-1,85
 365 99 365 99 353 87 c 128,-1,86
 341 75 341 75 324 75 c 128,-1,87
 307 75 307 75 295 87 c 128,-1,80
 283 99 283 99 283 116 c 128,-1,81
165 116 m 128,-1,89
 165 133 165 133 177 145 c 128,-1,90
 189 157 189 157 206 157 c 128,-1,91
 223 157 223 157 235 145 c 128,-1,92
 247 133 247 133 247 116 c 128,-1,93
 247 99 247 99 235 87 c 128,-1,94
 223 75 223 75 206 75 c 128,-1,95
 189 75 189 75 177 87 c 128,-1,88
 165 99 165 99 165 116 c 128,-1,89
22 48 m 1,96,-1
 22 51 l 1,97,-1
 26 51 l 1,98,-1
 26 48 l 1,99,-1
 22 48 l 1,96,-1
EndSplineSet
EndChar
StartChar: Aring
Encoding: 197 197 118
Width: 1024
Flags: W
LayerCount: 2
Fore
SplineSet
473 582 m 128,-1,1
 473 599 473 599 485 611 c 128,-1,2
 497 623 497 623 514 623 c 128,-1,3
 531 623 531 623 543 611 c 128,-1,4
 555 599 555 599 555 582 c 128,-1,5
 555 565 555 565 543 553 c 128,-1,6
 531 541 531 541 514 541 c 128,-1,7
 497 541 497 541 485 553 c 128,-1,0
 473 565 473 565 473 582 c 128,-1,1
473 700 m 128,-1,9
 473 717 473 717 485 729 c 128,-1,10
 497 741 497 741 514 741 c 128,-1,11
 531 741 531 741 543 729 c 128,-1,12
 555 717 555 717 555 700 c 128,-1,13
 555 683 555 683 543 671 c 128,-1,14
 531 659 531 659 514 659 c 128,-1,15
 497 659 497 659 485 671 c 128,-1,8
 473 683 473 683 473 700 c 128,-1,9
473 818 m 128,-1,17
 473 835 473 835 485 847 c 128,-1,18
 497 859 497 859 514 859 c 128,-1,19
 531 859 531 859 543 847 c 128,-1,20
 555 835 555 835 555 818 c 128,-1,21
 555 801 555 801 543 789 c 128,-1,22
 531 777 531 777 514 777 c 128,-1,23
 497 777 497 777 485 789 c 128,-1,16
 473 801 473 801 473 818 c 128,-1,17
78 582 m 128,-1,25
 78 599 78 599 90 611 c 128,-1,26
 102 623 102 623 119 623 c 128,-1,27
 136 623 136 623 148 611 c 128,-1,28
 160 599 160 599 160 582 c 128,-1,29
 160 565 160 565 148 553 c 128,-1,30
 136 541 136 541 119 541 c 128,-1,31
 102 541 102 541 90 553 c 128,-1,24
 78 565 78 565 78 582 c 128,-1,25
78 700 m 128,-1,33
 78 717 78 717 90 729 c 128,-1,34
 102 741 102 741 119 741 c 128,-1,35
 136 741 136 741 148 729 c 128,-1,36
 160 717 160 717 160 700 c 128,-1,37
 160 683 160 683 148 671 c 128,-1,38
 136 659 136 659 119 659 c 128,-1,39
 102 659 102 659 90 671 c 128,-1,32
 78 683 78 683 78 700 c 128,-1,33
78 818 m 128,-1,41
 78 835 78 835 90 847 c 128,-1,42
 102 859 102 859 119 859 c 128,-1,43
 136 859 136 859 148 847 c 128,-1,44
 160 835 160 835 160 818 c 128,-1,45
 160 801 160 801 148 789 c 128,-1,46
 136 777 136 777 119 777 c 128,-1,47
 102 777 102 777 90 789 c 128,-1,40
 78 801 78 801 78 818 c 128,-1,41
401 510 m 128,-1,49
 401 527 401 527 413 539 c 128,-1,50
 425 551 425 551 442 551 c 128,-1,51
 459 551 459 551 471 539 c 128,-1,52
 483 527 483 527 483 510 c 128,-1,53
 483 493 483 493 471 481 c 128,-1,54
 459 469 459 469 442 469 c 128,-1,55
 425 469 425 469 413 481 c 128,-1,48
 401 493 401 493 401 510 c 128,-1,49
283 510 m 128,-1,57
 283 527 283 527 295 539 c 128,-1,58
 307 551 307 551 324 551 c 128,-1,59
 341 551 341 551 353 539 c 128,-1,60
 365 527 365 527 365 510 c 128,-1,61
 365 493 365 493 353 481 c 128,-1,62
 341 469 341 469 324 469 c 128,-1,63
 307 469 307 469 295 481 c 128,-1,56
 283 493 283 493 283 510 c 128,-1,57
165 510 m 128,-1,65
 165 527 165 527 177 539 c 128,-1,66
 189 551 189 551 206 551 c 128,-1,67
 223 551 223 551 235 539 c 128,-1,68
 247 527 247 527 247 510 c 128,-1,69
 247 493 247 493 235 481 c 128,-1,70
 223 469 223 469 206 469 c 128,-1,71
 189 469 189 469 177 481 c 128,-1,64
 165 493 165 493 165 510 c 128,-1,65
401 905 m 128,-1,73
 401 922 401 922 413 934 c 128,-1,74
 425 946 425 946 442 946 c 128,-1,75
 459 946 459 946 471 934 c 128,-1,76
 483 922 483 922 483 905 c 128,-1,77
 483 888 483 888 471 876 c 128,-1,78
 459 864 459 864 442 864 c 128,-1,79
 425 864 425 864 413 876 c 128,-1,72
 401 888 401 888 401 905 c 128,-1,73
283 905 m 128,-1,81
 283 922 283 922 295 934 c 128,-1,82
 307 946 307 946 324 946 c 128,-1,83
 341 946 341 946 353 934 c 128,-1,84
 365 922 365 922 365 905 c 128,-1,85
 365 888 365 888 353 876 c 128,-1,86
 341 864 341 864 324 864 c 128,-1,87
 307 864 307 864 295 876 c 128,-1,80
 283 888 283 888 283 905 c 128,-1,81
165 905 m 128,-1,89
 165 922 165 922 177 934 c 128,-1,90
 189 946 189 946 206 946 c 128,-1,91
 223 946 223 946 235 934 c 128,-1,92
 247 922 247 922 247 905 c 128,-1,93
 247 888 247 888 235 876 c 128,-1,94
 223 864 223 864 206 864 c 128,-1,95
 189 864 189 864 177 876 c 128,-1,88
 165 888 165 888 165 905 c 128,-1,89
22 48 m 1,96,-1
 22 51 l 1,97,-1
 26 51 l 1,98,-1
 26 48 l 1,99,-1
 22 48 l 1,96,-1
EndSplineSet
EndChar
StartChar: AE
Encoding: 198 198 119
Width: 1024
Flags: W
LayerCount: 2
Fore
SplineSet
473 203 m 128,-1,1
 473 220 473 220 485 232 c 128,-1,2
 497 244 497 244 514 244 c 128,-1,3
 531 244 531 244 543 232 c 128,-1,4
 555 220 555 220 555 203 c 128,-1,5
 555 186 555 186 543 174 c 128,-1,6
 531 162 531 162 514 162 c 128,-1,7
 497 162 497 162 485 174 c 128,-1,0
 473 186 473 186 473 203 c 128,-1,1
473 321 m 128,-1,9
 473 338 473 338 485 350 c 128,-1,10
 497 362 497 362 514 362 c 128,-1,11
 531 362 531 362 543 350 c 128,-1,12
 555 338 555 338 555 321 c 128,-1,13
 555 304 555 304 543 292 c 128,-1,14
 531 280 531 280 514 280 c 128,-1,15
 497 280 497 280 485 292 c 128,-1,8
 473 304 473 304 473 321 c 128,-1,9
473 439 m 128,-1,17
 473 456 473 456 485 468 c 128,-1,18
 497 480 497 480 514 480 c 128,-1,19
 531 480 531 480 543 468 c 128,-1,20
 555 456 555 456 555 439 c 128,-1,21
 555 422 555 422 543 410 c 128,-1,22
 531 398 531 398 514 398 c 128,-1,23
 497 398 497 398 485 410 c 128,-1,16
 473 422 473 422 473 439 c 128,-1,17
78 203 m 128,-1,25
 78 220 78 220 90 232 c 128,-1,26
 102 244 102 244 119 244 c 128,-1,27
 136 244 136 244 148 232 c 128,-1,28
 160 220 160 220 160 203 c 128,-1,29
 160 186 160 186 148 174 c 128,-1,30
 136 162 136 162 119 162 c 128,-1,31
 102 162 102 162 90 174 c 128,-1,24
 78 186 78 186 78 203 c 128,-1,25
78 321 m 128,-1,33
 78 338 78 338 90 350 c 128,-1,34
 102 362 102 362 119 362 c 128,-1,35
 136 362 136 362 148 350 c 128,-1,36
 160 338 160 338 160 321 c 128,-1,37
 160 304 160 304 148 292 c 128,-1,38
 136 280 136 280 119 280 c 128,-1,39
 102 280 102 280 90 292 c 128,-1,32
 78 304 78 304 78 321 c 128,-1,33
78 439 m 128,-1,41
 78 456 78 456 90 468 c 128,-1,42
 102 480 102 480 119 480 c 128,-1,43
 136 480 136 480 148 468 c 128,-1,44
 160 456 160 456 160 439 c 128,-1,45
 160 422 160 422 148 410 c 128,-1,46
 136 398 136 398 119 398 c 128,-1,47
 102 398 102 398 90 410 c 128,-1,40
 78 422 78 422 78 439 c 128,-1,41
401 510 m 128,-1,49
 401 527 401 527 413 539 c 128,-1,50
 425 551 425 551 442 551 c 128,-1,51
 459 551 459 551 471 539 c 128,-1,52
 483 527 483 527 483 510 c 128,-1,53
 483 493 483 493 471 481 c 128,-1,54
 459 469 459 469 442 469 c 128,-1,55
 425 469 425 469 413 481 c 128,-1,48
 401 493 401 493 401 510 c 128,-1,49
283 510 m 128,-1,57
 283 527 283 527 295 539 c 128,-1,58
 307 551 307 551 324 551 c 128,-1,59
 341 551 341 551 353 539 c 128,-1,60
 365 527 365 527 365 510 c 128,-1,61
 365 493 365 493 353 481 c 128,-1,62
 341 469 341 469 324 469 c 128,-1,63
 307 469 307 469 295 481 c 128,-1,56
 283 493 283 493 283 510 c 128,-1,57
165 510 m 128,-1,65
 165 527 165 527 177 539 c 128,-1,66
 189 551 189 551 206 551 c 128,-1,67
 223 551 223 551 235 539 c 128,-1,68
 247 527 247 527 247 510 c 128,-1,69
 247 493 247 493 235 481 c 128,-1,70
 223 469 223 469 206 469 c 128,-1,71
 189 469 189 469 177 481 c 128,-1,64
 165 493 165 493 165 510 c 128,-1,65
401 116 m 128,-1,73
 401 133 401 133 413 145 c 128,-1,74
 425 157 425 157 442 157 c 128,-1,75
 459 157 459 157 471 145 c 128,-1,76
 483 133 483 133 483 116 c 128,-1,77
 483 99 483 99 471 87 c 128,-1,78
 459 75 459 75 442 75 c 128,-1,79
 425 75 425 75 413 87 c 128,-1,72
 401 99 401 99 401 116 c 128,-1,73
283 116 m 128,-1,81
 283 133 283 133 295 145 c 128,-1,82
 307 157 307 157 324 157 c 128,-1,83
 341 157 341 157 353 145 c 128,-1,84
 365 133 365 133 365 116 c 128,-1,85
 365 99 365 99 353 87 c 128,-1,86
 341 75 341 75 324 75 c 128,-1,87
 307 75 307 75 295 87 c 128,-1,80
 283 99 283 99 283 116 c 128,-1,81
165 116 m 128,-1,89
 165 133 165 133 177 145 c 128,-1,90
 189 157 189 157 206 157 c 128,-1,91
 223 157 223 157 235 145 c 128,-1,92
 247 133 247 133 247 116 c 128,-1,93
 247 99 247 99 235 87 c 128,-1,94
 223 75 223 75 206 75 c 128,-1,95
 189 75 189 75 177 87 c 128,-1,88
 165 99 165 99 165 116 c 128,-1,89
22 48 m 1,96,-1
 22 51 l 1,97,-1
 26 51 l 1,98,-1
 26 48 l 1,99,-1
 22 48 l 1,96,-1
EndSplineSet
EndChar
StartChar: Ccedilla
Encoding: 199 199 120
Width: 1024
Flags: W
LayerCount: 2
Fore
SplineSet
764 200 m 128,-1,1
 752 212 752 212 752 229 c 128,-1,2
 752 246 752 246 764 258 c 128,-1,3
 776 270 776 270 793 270 c 128,-1,4
 810 270 810 270 822 258 c 128,-1,5
 834 246 834 246 834 229 c 128,-1,6
 834 212 834 212 822 200 c 128,-1,7
 810 188 810 188 793 188 c 128,-1,0
 776 188 776 188 764 200 c 128,-1,1
677 284 m 128,-1,9
 665 296 665 296 665 313 c 128,-1,10
 665 330 665 330 677 342 c 128,-1,11
 689 354 689 354 706 354 c 128,-1,12
 723 354 723 354 735 342 c 128,-1,13
 747 330 747 330 747 313 c 128,-1,14
 747 296 747 296 735 284 c 128,-1,15
 723 272 723 272 706 272 c 128,-1,8
 689 272 689 272 677 284 c 128,-1,9
590 374 m 128,-1,17
 578 386 578 386 578 403 c 128,-1,18
 578 420 578 420 590 432 c 128,-1,19
 602 444 602 444 619 444 c 128,-1,20
 636 444 636 444 648 432 c 128,-1,21
 660 420 660 420 660 403 c 128,-1,22
 660 386 660 386 648 374 c 128,-1,23
 636 362 636 362 619 362 c 128,-1,16
 602 362 602 362 590 374 c 128,-1,17
22 48 m 1,24,-1
 22 51 l 1,25,-1
 26 51 l 1,26,-1
 26 48 l 1,27,-1
 22 48 l 1,24,-1
EndSplineSet
EndChar
StartChar: Ograve
Encoding: 210 210 129
Width: 1024
Flags: W
LayerCount: 2
Fore
SplineSet
22 48 m 1,0,-1
 22 51 l 1,1,-1
 26 51 l 1,2,-1
 26 48 l 1,3,-1
 22 48 l 1,0,-1
78 582 m 128,-1,5
 78 599 78 599 90 611 c 128,-1,6
 102 623 102 623 119 623 c 128,-1,7
 136 623 136 623 148 611 c 128,-1,8
 160 599 160 599 160 582 c 128,-1,9
 160 565 160 565 148 553 c 128,-1,10
 136 541 136 541 119 541 c 128,-1,11
 102 541 102 541 90 553 c 128,-1,4
 78 565 78 565 78 582 c 128,-1,5
78 700 m 128,-1,13
 78 717 78 717 90 729 c 128,-1,14
 102 741 102 741 119 741 c 128,-1,15
 136 741 136 741 148 729 c 128,-1,16
 160 717 160 717 160 700 c 128,-1,17
 160 683 160 683 148 671 c 128,-1,18
 136 659 136 659 119 659 c 128,-1,19
 102 659 102 659 90 671 c 128,-1,12
 78 683 78 683 78 700 c 128,-1,13
78 818 m 128,-1,21
 78 835 78 835 90 847 c 128,-1,22
 102 859 102 859 119 859 c 128,-1,23
 136 859 136 859 148 847 c 128,-1,24
 160 835 160 835 160 818 c 128,-1,25
 160 801 160 801 148 789 c 128,-1,26
 136 777 136 777 119 777 c 128,-1,27
 102 777 102 777 90 789 c 128,-1,20
 78 801 78 801 78 818 c 128,-1,21
78 203 m 128,-1,29
 78 220 78 220 90 232 c 128,-1,30
 102 244 102 244 119 244 c 128,-1,31
 136 244 136 244 148 232 c 128,-1,32
 160 220 160 220 160 203 c 128,-1,33
 160 186 160 186 148 174 c 128,-1,34
 136 162 136 162 119 162 c 128,-1,35
 102 162 102 162 90 174 c 128,-1,28
 78 186 78 186 78 203 c 128,-1,29
78 321 m 128,-1,37
 78 338 78 338 90 350 c 128,-1,38
 102 362 102 362 119 362 c 128,-1,39
 136 362 136 362 148 350 c 128,-1,40
 160 338 160 338 160 321 c 128,-1,41
 160 304 160 304 148 292 c 128,-1,42
 136 280 136 280 119 280 c 128,-1,43
 102 280 102 280 90 292 c 128,-1,36
 78 304 78 304 78 321 c 128,-1,37
78 439 m 128,-1,45
 78 456 78 456 90 468 c 128,-1,46
 102 480 102 480 119 480 c 128,-1,47
 136 480 136 480 148 468 c 128,-1,48
 160 456 160 456 160 439 c 128,-1,49
 160 422 160 422 148 410 c 128,-1,50
 136 398 136 398 119 398 c 128,-1,51
 102 398 102 398 90 410 c 128,-1,44
 78 422 78 422 78 439 c 128,-1,45
22 48 m 1,52,-1
 22 51 l 1,53,-1
 26 51 l 1,54,-1
 26 48 l 1,55,-1
 22 48 l 1,52,-1
EndSplineSet
EndChar
StartChar: Oacute
Encoding: 211 211 130
Width: 1024
Flags: W
LayerCount: 2
Fore
SplineSet
473 582 m 128,-1,1
 473 599 473 599 485 611 c 128,-1,2
 497 623 497 623 514 623 c 128,-1,3
 531 623 531 623 543 611 c 128,-1,4
 555 599 555 599 555 582 c 128,-1,5
 555 565 555 565 543 553 c 128,-1,6
 531 541 531 541 514 541 c 128,-1,7
 497 541 497 541 485 553 c 128,-1,0
 473 565 473 565 473 582 c 128,-1,1
473 700 m 128,-1,9
 473 717 473 717 485 729 c 128,-1,10
 497 741 497 741 514 741 c 128,-1,11
 531 741 531 741 543 729 c 128,-1,12
 555 717 555 717 555 700 c 128,-1,13
 555 683 555 683 543 671 c 128,-1,14
 531 659 531 659 514 659 c 128,-1,15
 497 659 497 659 485 671 c 128,-1,8
 473 683 473 683 473 700 c 128,-1,9
473 818 m 128,-1,17
 473 835 473 835 485 847 c 128,-1,18
 497 859 497 859 514 859 c 128,-1,19
 531 859 531 859 543 847 c 128,-1,20
 555 835 555 835 555 818 c 128,-1,21
 555 801 555 801 543 789 c 128,-1,22
 531 777 531 777 514 777 c 128,-1,23
 497 777 497 777 485 789 c 128,-1,16
 473 801 473 801 473 818 c 128,-1,17
401 510 m 128,-1,25
 401 527 401 527 413 539 c 128,-1,26
 425 551 425 551 442 551 c 128,-1,27
 459 551 459 551 471 539 c 128,-1,28
 483 527 483 527 483 510 c 128,-1,29
 483 493 483 493 471 481 c 128,-1,30
 459 469 459 469 442 469 c 128,-1,31
 425 469 425 469 413 481 c 128,-1,24
 401 493 401 493 401 510 c 128,-1,25
283 510 m 128,-1,33
 283 527 283 527 295 539 c 128,-1,34
 307 551 307 551 324 551 c 128,-1,35
 341 551 341 551 353 539 c 128,-1,36
 365 527 365 527 365 510 c 128,-1,37
 365 493 365 493 353 481 c 128,-1,38
 341 469 341 469 324 469 c 128,-1,39
 307 469 307 469 295 481 c 128,-1,32
 283 493 283 493 283 510 c 128,-1,33
165 510 m 128,-1,41
 165 527 165 527 177 539 c 128,-1,42
 189 551 189 551 206 551 c 128,-1,43
 223 551 223 551 235 539 c 128,-1,44
 247 527 247 527 247 510 c 128,-1,45
 247 493 247 493 235 481 c 128,-1,46
 223 469 223 469 206 469 c 128,-1,47
 189 469 189 469 177 481 c 128,-1,40
 165 493 165 493 165 510 c 128,-1,41
22 48 m 1,48,-1
 22 51 l 1,49,-1
 26 51 l 1,50,-1
 26 48 l 1,51,-1
 22 48 l 1,48,-1
78 203 m 128,-1,53
 78 220 78 220 90 232 c 128,-1,54
 102 244 102 244 119 244 c 128,-1,55
 136 244 136 244 148 232 c 128,-1,56
 160 220 160 220 160 203 c 128,-1,57
 160 186 160 186 148 174 c 128,-1,58
 136 162 136 162 119 162 c 128,-1,59
 102 162 102 162 90 174 c 128,-1,52
 78 186 78 186 78 203 c 128,-1,53
78 321 m 128,-1,61
 78 338 78 338 90 350 c 128,-1,62
 102 362 102 362 119 362 c 128,-1,63
 136 362 136 362 148 350 c 128,-1,64
 160 338 160 338 160 321 c 128,-1,65
 160 304 160 304 148 292 c 128,-1,66
 136 280 136 280 119 280 c 128,-1,67
 102 280 102 280 90 292 c 128,-1,60
 78 304 78 304 78 321 c 128,-1,61
78 439 m 128,-1,69
 78 456 78 456 90 468 c 128,-1,70
 102 480 102 480 119 480 c 128,-1,71
 136 480 136 480 148 468 c 128,-1,72
 160 456 160 456 160 439 c 128,-1,73
 160 422 160 422 148 410 c 128,-1,74
 136 398 136 398 119 398 c 128,-1,75
 102 398 102 398 90 410 c 128,-1,68
 78 422 78 422 78 439 c 128,-1,69
401 905 m 128,-1,77
 401 922 401 922 413 934 c 128,-1,78
 425 946 425 946 442 946 c 128,-1,79
 459 946 459 946 471 934 c 128,-1,80
 483 922 483 922 483 905 c 128,-1,81
 483 888 483 888 471 876 c 128,-1,82
 459 864 459 864 442 864 c 128,-1,83
 425 864 425 864 413 876 c 128,-1,76
 401 888 401 888 401 905 c 128,-1,77
283 905 m 128,-1,85
 283 922 283 922 295 934 c 128,-1,86
 307 946 307 946 324 946 c 128,-1,87
 341 946 341 946 353 934 c 128,-1,88
 365 922 365 922 365 905 c 128,-1,89
 365 888 365 888 353 876 c 128,-1,90
 341 864 341 864 324 864 c 128,-1,91
 307 864 307 864 295 876 c 128,-1,84
 283 888 283 888 283 905 c 128,-1,85
165 905 m 128,-1,93
 165 922 165 922 177 934 c 128,-1,94
 189 946 189 946 206 946 c 128,-1,95
 223 946 223 946 235 934 c 128,-1,96
 247 922 247 922 247 905 c 128,-1,97
 247 888 247 888 235 876 c 128,-1,98
 223 864 223 864 206 864 c 128,-1,99
 189 864 189 864 177 876 c 128,-1,92
 165 888 165 888 165 905 c 128,-1,93
401 116 m 128,-1,101
 401 133 401 133 413 145 c 128,-1,102
 425 157 425 157 442 157 c 128,-1,103
 459 157 459 157 471 145 c 128,-1,104
 483 133 483 133 483 116 c 128,-1,105
 483 99 483 99 471 87 c 128,-1,106
 459 75 459 75 442 75 c 128,-1,107
 425 75 425 75 413 87 c 128,-1,100
 401 99 401 99 401 116 c 128,-1,101
283 116 m 128,-1,109
 283 133 283 133 295 145 c 128,-1,110
 307 157 307 157 324 157 c 128,-1,111
 341 157 341 157 353 145 c 128,-1,112
 365 133 365 133 365 116 c 128,-1,113
 365 99 365 99 353 87 c 128,-1,114
 341 75 341 75 324 75 c 128,-1,115
 307 75 307 75 295 87 c 128,-1,108
 283 99 283 99 283 116 c 128,-1,109
165 116 m 128,-1,117
 165 133 165 133 177 145 c 128,-1,118
 189 157 189 157 206 157 c 128,-1,119
 223 157 223 157 235 145 c 128,-1,120
 247 133 247 133 247 116 c 128,-1,121
 247 99 247 99 235 87 c 128,-1,122
 223 75 223 75 206 75 c 128,-1,123
 189 75 189 75 177 87 c 128,-1,116
 165 99 165 99 165 116 c 128,-1,117
22 48 m 1,124,-1
 22 51 l 1,125,-1
 26 51 l 1,126,-1
 26 48 l 1,127,-1
 22 48 l 1,124,-1
EndSplineSet
EndChar
StartChar: Ocircumflex
Encoding: 212 212 131
Width: 1024
Flags: W
LayerCount: 2
Fore
SplineSet
473 582 m 128,-1,1
 473 599 473 599 485 611 c 128,-1,2
 497 623 497 623 514 623 c 128,-1,3
 531 623 531 623 543 611 c 128,-1,4
 555 599 555 599 555 582 c 128,-1,5
 555 565 555 565 543 553 c 128,-1,6
 531 541 531 541 514 541 c 128,-1,7
 497 541 497 541 485 553 c 128,-1,0
 473 565 473 565 473 582 c 128,-1,1
473 700 m 128,-1,9
 473 717 473 717 485 729 c 128,-1,10
 497 741 497 741 514 741 c 128,-1,11
 531 741 531 741 543 729 c 128,-1,12
 555 717 555 717 555 700 c 128,-1,13
 555 683 555 683 543 671 c 128,-1,14
 531 659 531 659 514 659 c 128,-1,15
 497 659 497 659 485 671 c 128,-1,8
 473 683 473 683 473 700 c 128,-1,9
473 818 m 128,-1,17
 473 835 473 835 485 847 c 128,-1,18
 497 859 497 859 514 859 c 128,-1,19
 531 859 531 859 543 847 c 128,-1,20
 555 835 555 835 555 818 c 128,-1,21
 555 801 555 801 543 789 c 128,-1,22
 531 777 531 777 514 777 c 128,-1,23
 497 777 497 777 485 789 c 128,-1,16
 473 801 473 801 473 818 c 128,-1,17
473 203 m 128,-1,25
 473 220 473 220 485 232 c 128,-1,26
 497 244 497 244 514 244 c 128,-1,27
 531 244 531 244 543 232 c 128,-1,28
 555 220 555 220 555 203 c 128,-1,29
 555 186 555 186 543 174 c 128,-1,30
 531 162 531 162 514 162 c 128,-1,31
 497 162 497 162 485 174 c 128,-1,24
 473 186 473 186 473 203 c 128,-1,25
473 321 m 128,-1,33
 473 338 473 338 485 350 c 128,-1,34
 497 362 497 362 514 362 c 128,-1,35
 531 362 531 362 543 350 c 128,-1,36
 555 338 555 338 555 321 c 128,-1,37
 555 304 555 304 543 292 c 128,-1,38
 531 280 531 280 514 280 c 128,-1,39
 497 280 497 280 485 292 c 128,-1,32
 473 304 473 304 473 321 c 128,-1,33
473 439 m 128,-1,41
 473 456 473 456 485 468 c 128,-1,42
 497 480 497 480 514 480 c 128,-1,43
 531 480 531 480 543 468 c 128,-1,44
 555 456 555 456 555 439 c 128,-1,45
 555 422 555 422 543 410 c 128,-1,46
 531 398 531 398 514 398 c 128,-1,47
 497 398 497 398 485 410 c 128,-1,40
 473 422 473 422 473 439 c 128,-1,41
401 510 m 128,-1,49
 401 527 401 527 413 539 c 128,-1,50
 425 551 425 551 442 551 c 128,-1,51
 459 551 459 551 471 539 c 128,-1,52
 483 527 483 527 483 510 c 128,-1,53
 483 493 483 493 471 481 c 128,-1,54
 459 469 459 469 442 469 c 128,-1,55
 425 469 425 469 413 481 c 128,-1,48
 401 493 401 493 401 510 c 128,-1,49
283 510 m 128,-1,57
 283 527 283 527 295 539 c 128,-1,58
 307 551 307 551 324 551 c 128,-1,59
 341 551 341 551 353 539 c 128,-1,60
 365 527 365 527 365 510 c 128,-1,61
 365 493 365 493 353 481 c 128,-1,62
 341 469 341 469 324 469 c 128,-1,63
 307 469 307 469 295 481 c 128,-1,56
 283 493 283 493 283 510 c 128,-1,57
165 510 m 128,-1,65
 165 527 165 527 177 539 c 128,-1,66
 189 551 189 551 206 551 c 128,-1,67
 223 551 223 551 235 539 c 128,-1,68
 247 527 247 527 247 510 c 128,-1,69
 247 493 247 493 235 481 c 128,-1,70
 223 469 223 469 206 469 c 128,-1,71
 189 469 189 469 177 481 c 128,-1,64
 165 493 165 493 165 510 c 128,-1,65
22 48 m 1,72,-1
 22 51 l 1,73,-1
 26 51 l 1,74,-1
 26 48 l 1,75,-1
 22 48 l 1,72,-1
401 905 m 128,-1,77
 401 922 401 922 413 934 c 128,-1,78
 425 946 425 946 442 946 c 128,-1,79
 459 946 459 946 471 934 c 128,-1,80
 483 922 483 922 483 905 c 128,-1,81
 483 888 483 888 471 876 c 128,-1,82
 459 864 459 864 442 864 c 128,-1,83
 425 864 425 864 413 876 c 128,-1,76
 401 888 401 888 401 905 c 128,-1,77
283 905 m 128,-1,85
 283 922 283 922 295 934 c 128,-1,86
 307 946 307 946 324 946 c 128,-1,87
 341 946 341 946 353 934 c 128,-1,88
 365 922 365 922 365 905 c 128,-1,89
 365 888 365 888 353 876 c 128,-1,90
 341 864 341 864 324 864 c 128,-1,91
 307 864 307 864 295 876 c 128,-1,84
 283 888 283 888 283 905 c 128,-1,85
165 905 m 128,-1,93
 165 922 165 922 177 934 c 128,-1,94
 189 946 189 946 206 946 c 128,-1,95
 223 946 223 946 235 934 c 128,-1,96
 247 922 247 922 247 905 c 128,-1,97
 247 888 247 888 235 876 c 128,-1,98
 223 864 223 864 206 864 c 128,-1,99
 189 864 189 864 177 876 c 128,-1,92
 165 888 165 888 165 905 c 128,-1,93
401 116 m 128,-1,101
 401 133 401 133 413 145 c 128,-1,102
 425 157 425 157 442 157 c 128,-1,103
 459 157 459 157 471 145 c 128,-1,104
 483 133 483 133 483 116 c 128,-1,105
 483 99 483 99 471 87 c 128,-1,106
 459 75 459 75 442 75 c 128,-1,107
 425 75 425 75 413 87 c 128,-1,100
 401 99 401 99 401 116 c 128,-1,101
283 116 m 128,-1,109
 283 133 283 133 295 145 c 128,-1,110
 307 157 307 157 324 157 c 128,-1,111
 341 157 341 157 353 145 c 128,-1,112
 365 133 365 133 365 116 c 128,-1,113
 365 99 365 99 353 87 c 128,-1,114
 341 75 341 75 324 75 c 128,-1,115
 307 75 307 75 295 87 c 128,-1,108
 283 99 283 99 283 116 c 128,-1,109
165 116 m 128,-1,117
 165 133 165 133 177 145 c 128,-1,118
 189 157 189 157 206 157 c 128,-1,119
 223 157 223 157 235 145 c 128,-1,120
 247 133 247 133 247 116 c 128,-1,121
 247 99 247 99 235 87 c 128,-1,122
 223 75 223 75 206 75 c 128,-1,123
 189 75 189 75 177 87 c 128,-1,116
 165 99 165 99 165 116 c 128,-1,117
22 48 m 1,124,-1
 22 51 l 1,125,-1
 26 51 l 1,126,-1
 26 48 l 1,127,-1
 22 48 l 1,124,-1
EndSplineSet
EndChar
StartChar: Odieresis
Encoding: 214 214 133
Width: 1024
Flags: W
LayerCount: 2
Fore
SplineSet
473 203 m 128,-1,1
 473 220 473 220 485 232 c 128,-1,2
 497 244 497 244 514 244 c 128,-1,3
 531 244 531 244 543 232 c 128,-1,4
 555 220 555 220 555 203 c 128,-1,5
 555 186 555 186 543 174 c 128,-1,6
 531 162 531 162 514 162 c 128,-1,7
 497 162 497 162 485 174 c 128,-1,0
 473 186 473 186 473 203 c 128,-1,1
473 321 m 128,-1,9
 473 338 473 338 485 350 c 128,-1,10
 497 362 497 362 514 362 c 128,-1,11
 531 362 531 362 543 350 c 128,-1,12
 555 338 555 338 555 321 c 128,-1,13
 555 304 555 304 543 292 c 128,-1,14
 531 280 531 280 514 280 c 128,-1,15
 497 280 497 280 485 292 c 128,-1,8
 473 304 473 304 473 321 c 128,-1,9
473 439 m 128,-1,17
 473 456 473 456 485 468 c 128,-1,18
 497 480 497 480 514 480 c 128,-1,19
 531 480 531 480 543 468 c 128,-1,20
 555 456 555 456 555 439 c 128,-1,21
 555 422 555 422 543 410 c 128,-1,22
 531 398 531 398 514 398 c 128,-1,23
 497 398 497 398 485 410 c 128,-1,16
 473 422 473 422 473 439 c 128,-1,17
401 510 m 128,-1,25
 401 527 401 527 413 539 c 128,-1,26
 425 551 425 551 442 551 c 128,-1,27
 459 551 459 551 471 539 c 128,-1,28
 483 527 483 527 483 510 c 128,-1,29
 483 493 483 493 471 481 c 128,-1,30
 459 469 459 469 442 469 c 128,-1,31
 425 469 425 469 413 481 c 128,-1,24
 401 493 401 493 401 510 c 128,-1,25
283 510 m 128,-1,33
 283 527 283 527 295 539 c 128,-1,34
 307 551 307 551 324 551 c 128,-1,35
 341 551 341 551 353 539 c 128,-1,36
 365 527 365 527 365 510 c 128,-1,37
 365 493 365 493 353 481 c 128,-1,38
 341 469 341 469 324 469 c 128,-1,39
 307 469 307 469 295 481 c 128,-1,32
 283 493 283 493 283 510 c 128,-1,33
165 510 m 128,-1,41
 165 527 165 527 177 539 c 128,-1,42
 189 551 189 551 206 551 c 128,-1,43
 223 551 223 551 235 539 c 128,-1,44
 247 527 247 527 247 510 c 128,-1,45
 247 493 247 493 235 481 c 128,-1,46
 223 469 223 469 206 469 c 128,-1,47
 189 469 189 469 177 481 c 128,-1,40
 165 493 165 493 165 510 c 128,-1,41
22 48 m 1,48,-1
 22 51 l 1,49,-1
 26 51 l 1,50,-1
 26 48 l 1,51,-1
 22 48 l 1,48,-1
78 582 m 128,-1,53
 78 599 78 599 90 611 c 128,-1,54
 102 623 102 623 119 623 c 128,-1,55
 136 623 136 623 148 611 c 128,-1,56
 160 599 160 599 160 582 c 128,-1,57
 160 565 160 565 148 553 c 128,-1,58
 136 541 136 541 119 541 c 128,-1,59
 102 541 102 541 90 553 c 128,-1,52
 78 565 78 565 78 582 c 128,-1,53
78 700 m 128,-1,61
 78 717 78 717 90 729 c 128,-1,62
 102 741 102 741 119 741 c 128,-1,63
 136 741 136 741 148 729 c 128,-1,64
 160 717 160 717 160 700 c 128,-1,65
 160 683 160 683 148 671 c 128,-1,66
 136 659 136 659 119 659 c 128,-1,67
 102 659 102 659 90 671 c 128,-1,60
 78 683 78 683 78 700 c 128,-1,61
78 818 m 128,-1,69
 78 835 78 835 90 847 c 128,-1,70
 102 859 102 859 119 859 c 128,-1,71
 136 859 136 859 148 847 c 128,-1,72
 160 835 160 835 160 818 c 128,-1,73
 160 801 160 801 148 789 c 128,-1,74
 136 777 136 777 119 777 c 128,-1,75
 102 777 102 777 90 789 c 128,-1,68
 78 801 78 801 78 818 c 128,-1,69
401 905 m 128,-1,77
 401 922 401 922 413 934 c 128,-1,78
 425 946 425 946 442 946 c 128,-1,79
 459 946 459 946 471 934 c 128,-1,80
 483 922 483 922 483 905 c 128,-1,81
 483 888 483 888 471 876 c 128,-1,82
 459 864 459 864 442 864 c 128,-1,83
 425 864 425 864 413 876 c 128,-1,76
 401 888 401 888 401 905 c 128,-1,77
283 905 m 128,-1,85
 283 922 283 922 295 934 c 128,-1,86
 307 946 307 946 324 946 c 128,-1,87
 341 946 341 946 353 934 c 128,-1,88
 365 922 365 922 365 905 c 128,-1,89
 365 888 365 888 353 876 c 128,-1,90
 341 864 341 864 324 864 c 128,-1,91
 307 864 307 864 295 876 c 128,-1,84
 283 888 283 888 283 905 c 128,-1,85
165 905 m 128,-1,93
 165 922 165 922 177 934 c 128,-1,94
 189 946 189 946 206 946 c 128,-1,95
 223 946 223 946 235 934 c 128,-1,96
 247 922 247 922 247 905 c 128,-1,97
 247 888 247 888 235 876 c 128,-1,98
 223 864 223 864 206 864 c 128,-1,99
 189 864 189 864 177 876 c 128,-1,92
 165 888 165 888 165 905 c 128,-1,93
401 116 m 128,-1,101
 401 133 401 133 413 145 c 128,-1,102
 425 157 425 157 442 157 c 128,-1,103
 459 157 459 157 471 145 c 128,-1,104
 483 133 483 133 483 116 c 128,-1,105
 483 99 483 99 471 87 c 128,-1,106
 459 75 459 75 442 75 c 128,-1,107
 425 75 425 75 413 87 c 128,-1,100
 401 99 401 99 401 116 c 128,-1,101
283 116 m 128,-1,109
 283 133 283 133 295 145 c 128,-1,110
 307 157 307 157 324 157 c 128,-1,111
 341 157 341 157 353 145 c 128,-1,112
 365 133 365 133 365 116 c 128,-1,113
 365 99 365 99 353 87 c 128,-1,114
 341 75 341 75 324 75 c 128,-1,115
 307 75 307 75 295 87 c 128,-1,108
 283 99 283 99 283 116 c 128,-1,109
165 116 m 128,-1,117
 165 133 165 133 177 145 c 128,-1,118
 189 157 189 157 206 157 c 128,-1,119
 223 157 223 157 235 145 c 128,-1,120
 247 133 247 133 247 116 c 128,-1,121
 247 99 247 99 235 87 c 128,-1,122
 223 75 223 75 206 75 c 128,-1,123
 189 75 189 75 177 87 c 128,-1,116
 165 99 165 99 165 116 c 128,-1,117
22 48 m 1,124,-1
 22 51 l 1,125,-1
 26 51 l 1,126,-1
 26 48 l 1,127,-1
 22 48 l 1,124,-1
EndSplineSet
EndChar
StartChar: multiply
Encoding: 215 215 134
Width: 1024
Flags: W
LayerCount: 2
Fore
SplineSet
473 203 m 128,-1,1
 473 220 473 220 485 232 c 128,-1,2
 497 244 497 244 514 244 c 128,-1,3
 531 244 531 244 543 232 c 128,-1,4
 555 220 555 220 555 203 c 128,-1,5
 555 186 555 186 543 174 c 128,-1,6
 531 162 531 162 514 162 c 128,-1,7
 497 162 497 162 485 174 c 128,-1,0
 473 186 473 186 473 203 c 128,-1,1
473 321 m 128,-1,9
 473 338 473 338 485 350 c 128,-1,10
 497 362 497 362 514 362 c 128,-1,11
 531 362 531 362 543 350 c 128,-1,12
 555 338 555 338 555 321 c 128,-1,13
 555 304 555 304 543 292 c 128,-1,14
 531 280 531 280 514 280 c 128,-1,15
 497 280 497 280 485 292 c 128,-1,8
 473 304 473 304 473 321 c 128,-1,9
473 439 m 128,-1,17
 473 456 473 456 485 468 c 128,-1,18
 497 480 497 480 514 480 c 128,-1,19
 531 480 531 480 543 468 c 128,-1,20
 555 456 555 456 555 439 c 128,-1,21
 555 422 555 422 543 410 c 128,-1,22
 531 398 531 398 514 398 c 128,-1,23
 497 398 497 398 485 410 c 128,-1,16
 473 422 473 422 473 439 c 128,-1,17
401 510 m 128,-1,25
 401 527 401 527 413 539 c 128,-1,26
 425 551 425 551 442 551 c 128,-1,27
 459 551 459 551 471 539 c 128,-1,28
 483 527 483 527 483 510 c 128,-1,29
 483 493 483 493 471 481 c 128,-1,30
 459 469 459 469 442 469 c 128,-1,31
 425 469 425 469 413 481 c 128,-1,24
 401 493 401 493 401 510 c 128,-1,25
283 510 m 128,-1,33
 283 527 283 527 295 539 c 128,-1,34
 307 551 307 551 324 551 c 128,-1,35
 341 551 341 551 353 539 c 128,-1,36
 365 527 365 527 365 510 c 128,-1,37
 365 493 365 493 353 481 c 128,-1,38
 341 469 341 469 324 469 c 128,-1,39
 307 469 307 469 295 481 c 128,-1,32
 283 493 283 493 283 510 c 128,-1,33
165 510 m 128,-1,41
 165 527 165 527 177 539 c 128,-1,42
 189 551 189 551 206 551 c 128,-1,43
 223 551 223 551 235 539 c 128,-1,44
 247 527 247 527 247 510 c 128,-1,45
 247 493 247 493 235 481 c 128,-1,46
 223 469 223 469 206 469 c 128,-1,47
 189 469 189 469 177 481 c 128,-1,40
 165 493 165 493 165 510 c 128,-1,41
22 48 m 1,48,-1
 22 51 l 1,49,-1
 26 51 l 1,50,-1
 26 48 l 1,51,-1
 22 48 l 1,48,-1
78 582 m 128,-1,53
 78 599 78 599 90 611 c 128,-1,54
 102 623 102 623 119 623 c 128,-1,55
 136 623 136 623 148 611 c 128,-1,56
 160 599 160 599 160 582 c 128,-1,57
 160 565 160 565 148 553 c 128,-1,58
 136 541 136 541 119 541 c 128,-1,59
 102 541 102 541 90 553 c 128,-1,52
 78 565 78 565 78 582 c 128,-1,53
78 700 m 128,-1,61
 78 717 78 717 90 729 c 128,-1,62
 102 741 102 741 119 741 c 128,-1,63
 136 741 136 741 148 729 c 128,-1,64
 160 717 160 717 160 700 c 128,-1,65
 160 683 160 683 148 671 c 128,-1,66
 136 659 136 659 119 659 c 128,-1,67
 102 659 102 659 90 671 c 128,-1,60
 78 683 78 683 78 700 c 128,-1,61
78 818 m 128,-1,69
 78 835 78 835 90 847 c 128,-1,70
 102 859 102 859 119 859 c 128,-1,71
 136 859 136 859 148 847 c 128,-1,72
 160 835 160 835 160 818 c 128,-1,73
 160 801 160 801 148 789 c 128,-1,74
 136 777 136 777 119 777 c 128,-1,75
 102 777 102 777 90 789 c 128,-1,68
 78 801 78 801 78 818 c 128,-1,69
78 203 m 128,-1,77
 78 220 78 220 90 232 c 128,-1,78
 102 244 102 244 119 244 c 128,-1,79
 136 244 136 244 148 232 c 128,-1,80
 160 220 160 220 160 203 c 128,-1,81
 160 186 160 186 148 174 c 128,-1,82
 136 162 136 162 119 162 c 128,-1,83
 102 162 102 162 90 174 c 128,-1,76
 78 186 78 186 78 203 c 128,-1,77
78 321 m 128,-1,85
 78 338 78 338 90 350 c 128,-1,86
 102 362 102 362 119 362 c 128,-1,87
 136 362 136 362 148 350 c 128,-1,88
 160 338 160 338 160 321 c 128,-1,89
 160 304 160 304 148 292 c 128,-1,90
 136 280 136 280 119 280 c 128,-1,91
 102 280 102 280 90 292 c 128,-1,84
 78 304 78 304 78 321 c 128,-1,85
78 439 m 128,-1,93
 78 456 78 456 90 468 c 128,-1,94
 102 480 102 480 119 480 c 128,-1,95
 136 480 136 480 148 468 c 128,-1,96
 160 456 160 456 160 439 c 128,-1,97
 160 422 160 422 148 410 c 128,-1,98
 136 398 136 398 119 398 c 128,-1,99
 102 398 102 398 90 410 c 128,-1,92
 78 422 78 422 78 439 c 128,-1,93
401 116 m 128,-1,101
 401 133 401 133 413 145 c 128,-1,102
 425 157 425 157 442 157 c 128,-1,103
 459 157 459 157 471 145 c 128,-1,104
 483 133 483 133 483 116 c 128,-1,105
 483 99 483 99 471 87 c 128,-1,106
 459 75 459 75 442 75 c 128,-1,107
 425 75 425 75 413 87 c 128,-1,100
 401 99 401 99 401 116 c 128,-1,101
283 116 m 128,-1,109
 283 133 283 133 295 145 c 128,-1,110
 307 157 307 157 324 157 c 128,-1,111
 341 157 341 157 353 145 c 128,-1,112
 365 133 365 133 365 116 c 128,-1,113
 365 99 365 99 353 87 c 128,-1,114
 341 75 341 75 324 75 c 128,-1,115
 307 75 307 75 295 87 c 128,-1,108
 283 99 283 99 283 116 c 128,-1,109
165 116 m 128,-1,117
 165 133 165 133 177 145 c 128,-1,118
 189 157 189 157 206 157 c 128,-1,119
 223 157 223 157 235 145 c 128,-1,120
 247 133 247 133 247 116 c 128,-1,121
 247 99 247 99 235 87 c 128,-1,122
 223 75 223 75 206 75 c 128,-1,123
 189 75 189 75 177 87 c 128,-1,116
 165 99 165 99 165 116 c 128,-1,117
22 48 m 1,124,-1
 22 51 l 1,125,-1
 26 51 l 1,126,-1
 26 48 l 1,127,-1
 22 48 l 1,124,-1
EndSplineSet
EndChar
StartChar: Oslash
Encoding: 216 216 135
Width: 1024
Flags: W
LayerCount: 2
Fore
SplineSet
473 582 m 128,-1,1
 473 599 473 599 485 611 c 128,-1,2
 497 623 497 623 514 623 c 128,-1,3
 531 623 531 623 543 611 c 128,-1,4
 555 599 555 599 555 582 c 128,-1,5
 555 565 555 565 543 553 c 128,-1,6
 531 541 531 541 514 541 c 128,-1,7
 497 541 497 541 485 553 c 128,-1,0
 473 565 473 565 473 582 c 128,-1,1
473 700 m 128,-1,9
 473 717 473 717 485 729 c 128,-1,10
 497 741 497 741 514 741 c 128,-1,11
 531 741 531 741 543 729 c 128,-1,12
 555 717 555 717 555 700 c 128,-1,13
 555 683 555 683 543 671 c 128,-1,14
 531 659 531 659 514 659 c 128,-1,15
 497 659 497 659 485 671 c 128,-1,8
 473 683 473 683 473 700 c 128,-1,9
473 818 m 128,-1,17
 473 835 473 835 485 847 c 128,-1,18
 497 859 497 859 514 859 c 128,-1,19
 531 859 531 859 543 847 c 128,-1,20
 555 835 555 835 555 818 c 128,-1,21
 555 801 555 801 543 789 c 128,-1,22
 531 777 531 777 514 777 c 128,-1,23
 497 777 497 777 485 789 c 128,-1,16
 473 801 473 801 473 818 c 128,-1,17
473 203 m 128,-1,25
 473 220 473 220 485 232 c 128,-1,26
 497 244 497 244 514 244 c 128,-1,27
 531 244 531 244 543 232 c 128,-1,28
 555 220 555 220 555 203 c 128,-1,29
 555 186 555 186 543 174 c 128,-1,30
 531 162 531 162 514 162 c 128,-1,31
 497 162 497 162 485 174 c 128,-1,24
 473 186 473 186 473 203 c 128,-1,25
473 321 m 128,-1,33
 473 338 473 338 485 350 c 128,-1,34
 497 362 497 362 514 362 c 128,-1,35
 531 362 531 362 543 350 c 128,-1,36
 555 338 555 338 555 321 c 128,-1,37
 555 304 555 304 543 292 c 128,-1,38
 531 280 531 280 514 280 c 128,-1,39
 497 280 497 280 485 292 c 128,-1,32
 473 304 473 304 473 321 c 128,-1,33
473 439 m 128,-1,41
 473 456 473 456 485 468 c 128,-1,42
 497 480 497 480 514 480 c 128,-1,43
 531 480 531 480 543 468 c 128,-1,44
 555 456 555 456 555 439 c 128,-1,45
 555 422 555 422 543 410 c 128,-1,46
 531 398 531 398 514 398 c 128,-1,47
 497 398 497 398 485 410 c 128,-1,40
 473 422 473 422 473 439 c 128,-1,41
22 48 m 1,48,-1
 22 51 l 1,49,-1
 26 51 l 1,50,-1
 26 48 l 1,51,-1
 22 48 l 1,48,-1
401 905 m 128,-1,53
 401 922 401 922 413 934 c 128,-1,54
 425 946 425 946 442 946 c 128,-1,55
 459 946 459 946 471 934 c 128,-1,56
 483 922 483 922 483 905 c 128,-1,57
 483 888 483 888 471 876 c 128,-1,58
 459 864 459 864 442 864 c 128,-1,59
 425 864 425 864 413 876 c 128,-1,52
 401 888 401 888 401 905 c 128,-1,53
283 905 m 128,-1,61
 283 922 283 922 295 934 c 128,-1,62
 307 946 307 946 324 946 c 128,-1,63
 341 946 341 946 353 934 c 128,-1,64
 365 922 365 922 365 905 c 128,-1,65
 365 888 365 888 353 876 c 128,-1,66
 341 864 341 864 324 864 c 128,-1,67
 307 864 307 864 295 876 c 128,-1,60
 283 888 283 888 283 905 c 128,-1,61
165 905 m 128,-1,69
 165 922 165 922 177 934 c 128,-1,70
 189 946 189 946 206 946 c 128,-1,71
 223 946 223 946 235 934 c 128,-1,72
 247 922 247 922 247 905 c 128,-1,73
 247 888 247 888 235 876 c 128,-1,74
 223 864 223 864 206 864 c 128,-1,75
 189 864 189 864 177 876 c 128,-1,68
 165 888 165 888 165 905 c 128,-1,69
22 48 m 1,76,-1
 22 51 l 1,77,-1
 26 51 l 1,78,-1
 26 48 l 1,79,-1
 22 48 l 1,76,-1
EndSplineSet
EndChar
StartChar: Ugrave
Encoding: 217 217 136
Width: 1024
Flags: W
LayerCount: 2
Fore
SplineSet
473 582 m 128,-1,1
 473 599 473 599 485 611 c 128,-1,2
 497 623 497 623 514 623 c 128,-1,3
 531 623 531 623 543 611 c 128,-1,4
 555 599 555 599 555 582 c 128,-1,5
 555 565 555 565 543 553 c 128,-1,6
 531 541 531 541 514 541 c 128,-1,7
 497 541 497 541 485 553 c 128,-1,0
 473 565 473 565 473 582 c 128,-1,1
473 700 m 128,-1,9
 473 717 473 717 485 729 c 128,-1,10
 497 741 497 741 514 741 c 128,-1,11
 531 741 531 741 543 729 c 128,-1,12
 555 717 555 717 555 700 c 128,-1,13
 555 683 555 683 543 671 c 128,-1,14
 531 659 531 659 514 659 c 128,-1,15
 497 659 497 659 485 671 c 128,-1,8
 473 683 473 683 473 700 c 128,-1,9
473 818 m 128,-1,17
 473 835 473 835 485 847 c 128,-1,18
 497 859 497 859 514 859 c 128,-1,19
 531 859 531 859 543 847 c 128,-1,20
 555 835 555 835 555 818 c 128,-1,21
 555 801 555 801 543 789 c 128,-1,22
 531 777 531 777 514 777 c 128,-1,23
 497 777 497 777 485 789 c 128,-1,16
 473 801 473 801 473 818 c 128,-1,17
473 203 m 128,-1,25
 473 220 473 220 485 232 c 128,-1,26
 497 244 497 244 514 244 c 128,-1,27
 531 244 531 244 543 232 c 128,-1,28
 555 220 555 220 555 203 c 128,-1,29
 555 186 555 186 543 174 c 128,-1,30
 531 162 531 162 514 162 c 128,-1,31
 497 162 497 162 485 174 c 128,-1,24
 473 186 473 186 473 203 c 128,-1,25
473 321 m 128,-1,33
 473 338 473 338 485 350 c 128,-1,34
 497 362 497 362 514 362 c 128,-1,35
 531 362 531 362 543 350 c 128,-1,36
 555 338 555 338 555 321 c 128,-1,37
 555 304 555 304 543 292 c 128,-1,38
 531 280 531 280 514 280 c 128,-1,39
 497 280 497 280 485 292 c 128,-1,32
 473 304 473 304 473 321 c 128,-1,33
473 439 m 128,-1,41
 473 456 473 456 485 468 c 128,-1,42
 497 480 497 480 514 480 c 128,-1,43
 531 480 531 480 543 468 c 128,-1,44
 555 456 555 456 555 439 c 128,-1,45
 555 422 555 422 543 410 c 128,-1,46
 531 398 531 398 514 398 c 128,-1,47
 497 398 497 398 485 410 c 128,-1,40
 473 422 473 422 473 439 c 128,-1,41
401 510 m 128,-1,49
 401 527 401 527 413 539 c 128,-1,50
 425 551 425 551 442 551 c 128,-1,51
 459 551 459 551 471 539 c 128,-1,52
 483 527 483 527 483 510 c 128,-1,53
 483 493 483 493 471 481 c 128,-1,54
 459 469 459 469 442 469 c 128,-1,55
 425 469 425 469 413 481 c 128,-1,48
 401 493 401 493 401 510 c 128,-1,49
283 510 m 128,-1,57
 283 527 283 527 295 539 c 128,-1,58
 307 551 307 551 324 551 c 128,-1,59
 341 551 341 551 353 539 c 128,-1,60
 365 527 365 527 365 510 c 128,-1,61
 365 493 365 493 353 481 c 128,-1,62
 341 469 341 469 324 469 c 128,-1,63
 307 469 307 469 295 481 c 128,-1,56
 283 493 283 493 283 510 c 128,-1,57
165 510 m 128,-1,65
 165 527 165 527 177 539 c 128,-1,66
 189 551 189 551 206 551 c 128,-1,67
 223 551 223 551 235 539 c 128,-1,68
 247 527 247 527 247 510 c 128,-1,69
 247 493 247 493 235 481 c 128,-1,70
 223 469 223 469 206 469 c 128,-1,71
 189 469 189 469 177 481 c 128,-1,64
 165 493 165 493 165 510 c 128,-1,65
22 48 m 1,72,-1
 22 51 l 1,73,-1
 26 51 l 1,74,-1
 26 48 l 1,75,-1
 22 48 l 1,72,-1
78 582 m 128,-1,77
 78 599 78 599 90 611 c 128,-1,78
 102 623 102 623 119 623 c 128,-1,79
 136 623 136 623 148 611 c 128,-1,80
 160 599 160 599 160 582 c 128,-1,81
 160 565 160 565 148 553 c 128,-1,82
 136 541 136 541 119 541 c 128,-1,83
 102 541 102 541 90 553 c 128,-1,76
 78 565 78 565 78 582 c 128,-1,77
78 700 m 128,-1,85
 78 717 78 717 90 729 c 128,-1,86
 102 741 102 741 119 741 c 128,-1,87
 136 741 136 741 148 729 c 128,-1,88
 160 717 160 717 160 700 c 128,-1,89
 160 683 160 683 148 671 c 128,-1,90
 136 659 136 659 119 659 c 128,-1,91
 102 659 102 659 90 671 c 128,-1,84
 78 683 78 683 78 700 c 128,-1,85
78 818 m 128,-1,93
 78 835 78 835 90 847 c 128,-1,94
 102 859 102 859 119 859 c 128,-1,95
 136 859 136 859 148 847 c 128,-1,96
 160 835 160 835 160 818 c 128,-1,97
 160 801 160 801 148 789 c 128,-1,98
 136 777 136 777 119 777 c 128,-1,99
 102 777 102 777 90 789 c 128,-1,92
 78 801 78 801 78 818 c 128,-1,93
78 203 m 128,-1,101
 78 220 78 220 90 232 c 128,-1,102
 102 244 102 244 119 244 c 128,-1,103
 136 244 136 244 148 232 c 128,-1,104
 160 220 160 220 160 203 c 128,-1,105
 160 186 160 186 148 174 c 128,-1,106
 136 162 136 162 119 162 c 128,-1,107
 102 162 102 162 90 174 c 128,-1,100
 78 186 78 186 78 203 c 128,-1,101
78 321 m 128,-1,109
 78 338 78 338 90 350 c 128,-1,110
 102 362 102 362 119 362 c 128,-1,111
 136 362 136 362 148 350 c 128,-1,112
 160 338 160 338 160 321 c 128,-1,113
 160 304 160 304 148 292 c 128,-1,114
 136 280 136 280 119 280 c 128,-1,115
 102 280 102 280 90 292 c 128,-1,108
 78 304 78 304 78 321 c 128,-1,109
78 439 m 128,-1,117
 78 456 78 456 90 468 c 128,-1,118
 102 480 102 480 119 480 c 128,-1,119
 136 480 136 480 148 468 c 128,-1,120
 160 456 160 456 160 439 c 128,-1,121
 160 422 160 422 148 410 c 128,-1,122
 136 398 136 398 119 398 c 128,-1,123
 102 398 102 398 90 410 c 128,-1,116
 78 422 78 422 78 439 c 128,-1,117
401 905 m 128,-1,125
 401 922 401 922 413 934 c 128,-1,126
 425 946 425 946 442 946 c 128,-1,127
 459 946 459 946 471 934 c 128,-1,128
 483 922 483 922 483 905 c 128,-1,129
 483 888 483 888 471 876 c 128,-1,130
 459 864 459 864 442 864 c 128,-1,131
 425 864 425 864 413 876 c 128,-1,124
 401 888 401 888 401 905 c 128,-1,125
283 905 m 128,-1,133
 283 922 283 922 295 934 c 128,-1,134
 307 946 307 946 324 946 c 128,-1,135
 341 946 341 946 353 934 c 128,-1,136
 365 922 365 922 365 905 c 128,-1,137
 365 888 365 888 353 876 c 128,-1,138
 341 864 341 864 324 864 c 128,-1,139
 307 864 307 864 295 876 c 128,-1,132
 283 888 283 888 283 905 c 128,-1,133
165 905 m 128,-1,141
 165 922 165 922 177 934 c 128,-1,142
 189 946 189 946 206 946 c 128,-1,143
 223 946 223 946 235 934 c 128,-1,144
 247 922 247 922 247 905 c 128,-1,145
 247 888 247 888 235 876 c 128,-1,146
 223 864 223 864 206 864 c 128,-1,147
 189 864 189 864 177 876 c 128,-1,140
 165 888 165 888 165 905 c 128,-1,141
401 116 m 128,-1,149
 401 133 401 133 413 145 c 128,-1,150
 425 157 425 157 442 157 c 128,-1,151
 459 157 459 157 471 145 c 128,-1,152
 483 133 483 133 483 116 c 128,-1,153
 483 99 483 99 471 87 c 128,-1,154
 459 75 459 75 442 75 c 128,-1,155
 425 75 425 75 413 87 c 128,-1,148
 401 99 401 99 401 116 c 128,-1,149
283 116 m 128,-1,157
 283 133 283 133 295 145 c 128,-1,158
 307 157 307 157 324 157 c 128,-1,159
 341 157 341 157 353 145 c 128,-1,160
 365 133 365 133 365 116 c 128,-1,161
 365 99 365 99 353 87 c 128,-1,162
 341 75 341 75 324 75 c 128,-1,163
 307 75 307 75 295 87 c 128,-1,156
 283 99 283 99 283 116 c 128,-1,157
165 116 m 128,-1,165
 165 133 165 133 177 145 c 128,-1,166
 189 157 189 157 206 157 c 128,-1,167
 223 157 223 157 235 145 c 128,-1,168
 247 133 247 133 247 116 c 128,-1,169
 247 99 247 99 235 87 c 128,-1,170
 223 75 223 75 206 75 c 128,-1,171
 189 75 189 75 177 87 c 128,-1,164
 165 99 165 99 165 116 c 128,-1,165
22 48 m 1,172,-1
 22 51 l 1,173,-1
 26 51 l 1,174,-1
 26 48 l 1,175,-1
 22 48 l 1,172,-1
EndSplineSet
EndChar
StartChar: .notdef
Encoding: 65536 -1 0
Width: 374
Flags: W
LayerCount: 2
Fore
SplineSet
34 0 m 1,0,-1
 34 682 l 1,1,-1
 306 682 l 1,2,-1
 306 0 l 1,3,-1
 34 0 l 1,0,-1
68 34 m 1,4,-1
 272 34 l 1,5,-1
 272 648 l 1,6,-1
 68 648 l 1,7,-1
 68 34 l 1,4,-1
EndSplineSet
EndChar
